<svg width="19" height="25" viewBox="0 0 19 25" fill="none" xmlns="http://www.w3.org/2000/svg">
<path d="M15.5711 11.5576C15.5612 9.76563 16.3826 8.41309 18.0451 7.41699C17.1148 6.10352 15.7096 5.38086 13.8542 5.23926C12.0977 5.10254 10.1779 6.25 9.47526 6.25C8.73307 6.25 7.03099 5.28809 5.69505 5.28809C2.93411 5.33203 0 7.46094 0 11.792C0 13.0713 0.2375 14.3929 0.7125 15.7568C1.34583 17.5488 3.63177 21.9434 6.01667 21.8701C7.26354 21.8408 8.14427 20.9961 9.76719 20.9961C11.3406 20.9961 12.157 21.8701 13.5474 21.8701C15.9521 21.8359 18.0203 17.8418 18.624 16.0449C15.3979 14.5459 15.5711 11.6504 15.5711 11.5576ZM12.7706 3.54004C14.1214 1.95801 13.9977 0.517578 13.9581 0C12.7656 0.0683594 11.3852 0.800781 10.5984 1.7041C9.73255 2.6709 9.22292 3.86719 9.33177 5.21484C10.6232 5.3125 11.8008 4.6582 12.7706 3.54004Z" fill="white"/>
</svg>
