<svg width="32" height="32" viewBox="0 0 32 32" fill="none" xmlns="http://www.w3.org/2000/svg">
<g clip-path="url(#clip0_43_2806)">
<mask id="mask0_43_2806" style="mask-type:luminance" maskUnits="userSpaceOnUse" x="0" y="0" width="32" height="32">
<path d="M32 0H0V32H32V0Z" fill="white"/>
</mask>
<g mask="url(#mask0_43_2806)">
<path d="M23.8169 28.576C20.1766 39.4751 10.4665 42.8365 5.33252 29.3026C4.62426 27.442 6.47013 26.7521 7.76188 25.9301C8.64628 25.3687 9.11234 24.8843 9.05729 24.3815C8.80041 22.0182 7.70316 15.4347 7.70316 15.4347L7.59307 15.2219C7.59307 15.2219 7.61876 15.1631 7.51233 15.2659C7.40224 15.376 7.14903 16.5209 6.15454 16.5209C5.25545 16.5209 4.34903 16.1209 3.916 13.354C3.75087 12.3521 3.83894 9.72462 4.95454 9.24755C5.41325 9.05306 5.83527 8.98333 6.24628 9.21819C6.66096 9.45306 5.76922 8.41086 10.3564 4.59434C13.3362 2.10627 18.0444 1.74297 19.9454 2.16498C21.8463 2.587 23.7435 3.51544 24.5839 5.48608C25.6041 7.87141 23.6334 9.68058 24.0701 15.1191C23.9894 17.0861 24.0995 21.4017 18.6903 22.8476C17.6628 23.1228 17.9821 24.6237 19.5233 24.9907C21.9821 25.7613 23.8169 27.6439 23.8169 28.5833" fill="white"/>
<path fill-rule="evenodd" clip-rule="evenodd" d="M23.8165 11.6398L23.8202 11.5884C23.9706 10.2527 24.1211 8.95725 24.8147 7.79395C25.0532 7.95541 25.0238 8.16092 24.9504 8.35174C24.2202 10.2306 24.2899 12.1829 24.3559 14.1352L24.3706 14.649C24.4477 17.0857 23.8385 19.3022 22.2165 21.1628C21.6514 21.8086 20.9027 22.2563 20.1431 22.6417C19.3578 23.0453 19.1926 23.3793 19.4385 24.2416L19.4679 24.3371C19.5192 24.4802 19.5706 24.627 19.4312 24.7701C19.266 24.9389 19.0825 24.8912 18.888 24.8361L18.866 24.8325C17.0465 24.323 15.3404 23.4725 13.8385 22.3261C13.6183 22.1646 13.4422 21.9481 13.2697 21.7352L13.2587 21.7206C13.1669 21.6105 13.1486 21.4343 13.277 21.3389C13.3981 21.2472 13.4899 21.3205 13.5963 21.405L13.633 21.438C14.4343 22.0882 15.4069 22.4922 16.433 22.6013C16.9247 22.6527 17.4091 22.6343 17.9009 22.616C18.1725 22.605 18.444 22.5939 18.7192 22.5976C19.0936 22.5976 19.4055 22.4251 19.6991 22.26L19.8018 22.2013C20.822 21.6325 21.7945 20.9976 22.4514 19.9738C23.0422 19.0563 23.4018 18.0582 23.611 17.005C23.8752 15.6802 23.8532 14.3371 23.8312 12.9756C23.8202 12.5352 23.8128 12.0875 23.8128 11.6398H23.8165ZM5.34309 8.87284C6.14676 8.81046 6.5908 9.28385 6.96878 9.83798C7.41676 10.515 7.69842 11.2883 7.7908 12.0949C7.80915 12.2306 7.8275 12.3738 7.74676 12.5095C7.58163 12.5316 7.56695 12.3994 7.56328 12.304C7.54493 11.5444 7.20731 10.8839 6.8697 10.2453C6.6275 9.78661 6.2752 9.34257 5.71741 9.23248C5.08621 9.10404 4.5064 9.67284 4.22016 10.4141C3.68805 11.7939 3.77979 13.1517 4.27153 14.4875C4.48438 15.071 4.75227 15.6655 5.29172 16.0728C5.83484 16.4875 6.49172 16.4141 6.89172 15.8637L6.96511 15.7719C7.03851 15.6765 7.1119 15.5848 7.1486 15.4783C7.22566 15.2655 7.34676 15.0673 7.56328 15.0967C7.81282 15.1334 7.85686 15.4013 7.88254 15.6105C8.1102 17.5329 8.37937 19.4501 8.68988 21.3609L8.9064 22.7848C9.00181 23.4123 9.1119 24.315 9.03851 24.6967C9.03377 24.7235 9.0301 24.7504 9.0275 24.7774C9.01282 24.8802 9.00548 24.9609 8.87337 24.9793C8.69355 25.0086 8.61649 24.9059 8.5908 24.7444C8.5064 24.1206 8.48071 23.8783 8.44401 22.9242C8.41098 21.9994 8.23851 21.0894 8.06236 20.1756L7.87887 19.1848C7.68805 18.0545 7.50089 16.9095 7.48254 15.6251L7.40915 15.7352C7.13025 16.1499 6.9064 16.4875 6.51007 16.616C6.21586 16.7287 5.89345 16.745 5.58937 16.6625C5.2853 16.5801 5.01529 16.4031 4.81832 16.1572C4.30121 15.5732 3.93796 14.8694 3.76144 14.1095C3.45319 12.8618 3.39814 11.6472 3.79447 10.4178C3.9853 9.82697 4.66419 8.77743 5.34309 8.87651V8.87284ZM6.61282 13.5517C6.77429 13.6692 6.92108 13.7719 7.05319 13.3536C7.01282 11.805 6.51374 10.8141 5.73942 10.7738C6.15043 11.3095 6.54676 11.8306 6.58346 12.5536C6.43076 12.4756 6.29679 12.3654 6.1908 12.2306C6.11741 12.1499 6.04401 12.0692 5.95227 12.0105L5.84218 11.9224C5.66603 11.7903 5.48621 11.6508 5.18897 11.7572C5.32842 11.9701 5.51924 12.1242 5.71374 12.271C5.93392 12.4435 6.1541 12.6123 6.28621 12.8765C5.89722 13.1591 5.72842 13.5261 5.93025 13.9738C6.1064 14.3591 6.36695 14.6783 6.88071 14.7004C6.85869 14.4692 6.70823 14.3004 6.55777 14.1352C6.37429 13.9371 6.20181 13.7462 6.28254 13.4527C6.39997 13.3976 6.51007 13.4783 6.61282 13.5517Z" fill="black"/>
<path d="M37.9307 48.0727H-6.4142L-6.09861 45.7497C-6.09861 45.7497 -8.94631 44.7809 -9.22888 44.2195C-9.51512 43.658 -6.14264 36.3589 -5.68026 35.2066C-5.2142 34.0506 -2.85457 29.9662 -1.45641 29.1883C0.0995569 28.3149 5.21148 25.9993 5.50506 25.7644C6.46286 24.9938 8.53992 24.1938 8.53992 24.1938V25.3204L14.8298 35.6323L15.2078 37.0195C15.2078 37.0195 19.0096 26.7149 19.3656 24.6231C19.6665 22.8617 23.7619 24.9974 23.7619 24.9974C23.7619 24.9974 27.9491 27.5883 29.0096 28.4213C31.1528 30.1167 34.1473 33.5075 35.6408 37.1993C36.4922 39.291 38.3014 43.3717 38.5986 43.8525C38.8959 44.3295 37.6078 45.1736 37.6078 45.1736L37.9307 48.0763V48.0727Z" fill="white"/>
<path fill-rule="evenodd" clip-rule="evenodd" d="M28.8632 28.6601C27.9788 27.9298 27.0908 27.1995 26.1109 26.6344C25.9642 26.5537 25.8247 26.4656 25.6816 26.3775C25.1972 26.0913 24.7128 25.7977 24.1623 25.6216C24.0963 25.9959 24.1109 26.3555 24.144 26.7078C24.3201 28.4305 24.3213 30.1665 24.1476 31.8894C24.0963 32.3115 24.1073 32.7445 24.1183 33.1739L24.1256 33.6252C24.1256 33.8748 24.0889 34.1243 24.0265 34.3592C23.9385 34.6968 23.7807 34.8472 23.4394 34.8729C23.1348 34.895 22.8302 34.9427 22.5293 34.9904C22.0423 35.0851 21.5464 35.1269 21.0504 35.1151C20.9476 35.1078 20.8449 35.1115 20.7825 35.1151H20.7348L20.8632 35.2766C20.9807 35.4234 21.1201 35.5959 21.2449 35.7757C21.4467 36.0583 21.4908 36.3041 21.2999 36.6894C20.3458 38.6124 19.0614 40.2601 17.6816 41.7647C17.2412 42.2454 16.8229 42.7628 16.4082 43.2766C15.722 44.1316 15.0357 44.9867 14.2137 45.6913C13.799 46.0472 13.4247 46.4546 13.0467 46.8656C12.6812 47.2796 12.2928 47.6729 11.8834 48.0436C11.3953 48.0693 10.9219 48.0693 10.4082 48.0693C10.6431 47.5995 10.8339 47.0968 11.0247 46.594C11.1905 46.1417 11.3741 45.6961 11.5752 45.2583C11.9336 44.4841 12.2605 43.6957 12.555 42.895C12.7752 42.3078 12.7862 41.7133 12.4009 41.1775L11.9825 40.5904C11.2339 39.5445 10.4816 38.4986 9.62654 37.5555C9.23755 37.1298 9.14948 36.4546 9.39535 35.8307C9.45773 35.6766 9.51278 35.5188 9.57149 35.3573L9.64856 35.1445C9.1348 34.9243 8.62103 34.9133 8.1036 34.8986C7.85773 34.8986 7.61553 34.8913 7.377 34.8619L7.32562 34.8546C6.53296 34.7665 6.51828 34.7628 6.23938 33.8931C5.63364 32.0233 5.24454 30.0902 5.07975 28.1316C5.04788 27.5843 4.9251 27.046 4.71645 26.539C3.87975 26.8803 3.07975 27.2656 2.28342 27.6509L2.24672 27.6656C1.3403 28.106 0.441217 28.5794 -0.450525 29.0638C-1.77163 29.7904 -2.80282 30.8913 -3.64319 32.2417L-3.66153 32.2711C-4.27438 33.2546 -4.88355 34.2381 -5.36429 35.317L-6.23768 37.2619L-6.72575 38.3372L-7.11108 39.1849C-7.44869 39.9261 -7.7863 40.6638 -8.1019 41.4124C-8.37401 42.0443 -8.62371 42.6857 -8.85052 43.3353C-8.99731 43.7647 -8.85419 43.9592 -8.54594 44.0693L-7.99548 44.2894C-7.48611 44.5163 -6.95321 44.6862 -6.40649 44.7959C-5.67254 44.9133 -5.01199 45.2179 -4.35144 45.5225L-4.30374 45.5445L-4.25236 45.5665C-3.14043 46.0803 -2.05053 46.6417 -0.956947 47.2069C-0.493053 47.4576 -0.044548 47.7357 0.386171 48.0399C0.0338783 48.0693 -0.318416 48.0766 -0.670709 48.0509C-1.62621 47.524 -2.61837 47.0666 -3.63952 46.6821C-4.35144 46.3959 -5.06337 46.1096 -5.76796 45.7647C-5.81906 46.03 -5.87534 46.2942 -5.93676 46.5573C-6.05419 47.0821 -6.16429 47.5665 -6.17897 48.0729H-6.64135C-6.72208 47.8087 -6.66337 47.5592 -6.60832 47.3096L-6.56429 47.1078C-6.49089 46.6931 -6.52025 46.3849 -6.98264 46.2968C-7.66153 46.161 -8.23034 45.7537 -8.80282 45.3463C-8.86388 45.3034 -8.92504 45.2606 -8.9863 45.2179C-9.42667 44.906 -9.56612 44.2564 -9.39731 43.4931C-9.20649 42.6307 -8.86887 41.8417 -8.52759 41.0528L-8.47988 40.9427C-7.88172 39.5482 -7.26153 38.172 -6.63768 36.7959L-6.14594 35.7023C-5.20282 33.6069 -4.10924 31.5922 -2.56796 29.9628C-1.79731 29.1482 -0.91658 28.5353 0.0632362 28.0619C0.349475 27.9261 0.635714 27.783 0.921952 27.6399C1.6559 27.2729 2.38984 26.906 3.14214 26.605C3.85039 26.3261 4.16966 25.9812 4.47791 25.6399C4.80819 25.2839 5.13113 24.9316 5.89443 24.6784L6.40452 24.5023C7.02103 24.2821 7.63755 24.0693 8.29076 24.0069H8.32746C8.37516 24.0032 8.42287 23.9995 8.45223 23.9702L8.46324 23.9592C8.61003 23.8124 8.76782 23.6656 8.9403 23.9005C9.01453 24.0015 9.05755 24.1221 9.06407 24.2473C9.07059 24.3725 9.04033 24.4968 8.977 24.605C8.72012 25.0014 8.85957 25.3757 8.98801 25.7206L8.99902 25.7537C9.30727 26.561 11.2082 29.772 11.8871 30.6931L12.1073 30.983C12.8779 32.0105 14.7642 34.5206 15.333 36.2564C15.5605 35.8124 15.722 35.339 15.8797 34.8729L16.0706 34.3225C16.4498 33.2695 16.807 32.2087 17.1421 31.1408C17.2779 30.7188 17.399 30.2968 17.5164 29.8674C17.6155 29.5225 17.7109 29.1775 17.8174 28.8399C17.9752 28.3188 18.1403 27.805 18.3054 27.2913L18.6357 26.2564L18.8522 25.5518L19.0908 24.7628C19.3953 23.8161 19.4724 23.6436 20.3385 23.6729C21.41 23.7096 22.6724 24.0876 23.4064 24.3959C26.9293 25.8784 32.5256 29.5555 35.1385 35.0454C35.9236 36.7368 36.6518 38.4539 37.3219 40.194C37.9642 41.8087 38.4669 43.0784 38.8853 43.6803C39.2375 44.194 39.1972 44.4876 38.7385 44.8583C38.6793 44.9064 38.6218 44.9566 38.566 45.0087C38.4192 45.1445 38.2724 45.2803 38.0816 45.339C37.8761 45.4014 37.8137 45.5775 37.843 45.8161C37.9305 46.554 38.01 47.2929 38.0816 48.0326C37.9311 48.0693 37.788 48.0693 37.5935 48.0362C37.4467 47.6986 37.4541 47.3757 37.4614 47.0638V47.0271C37.4798 46.4583 37.333 45.9372 37.1788 45.3904L37.0687 44.9904C36.9476 45.0417 36.8265 45.0894 36.7018 45.1335C36.4449 45.2289 36.199 45.3206 35.9678 45.4564C35.1053 45.979 34.1633 46.357 33.1788 46.5757C32.4119 46.7372 32.0596 47.2032 32.166 48.0729C31.9825 48.0766 31.7953 48.0619 31.6119 48.0289C31.5385 46.4986 32.4632 46.1353 33.6596 45.6656L34.0889 45.4931C35.8284 44.7775 38.0522 43.761 38.0522 43.761C38.0522 43.761 35.81 38.4803 35.021 36.4876C33.4798 32.5757 29.6045 29.2693 29.4761 29.1665L28.8632 28.6638V28.6601ZM17.2963 32.3775C16.7137 34.1137 16.0823 35.833 15.4027 37.5335C14.8889 38.8399 14.3311 40.1243 13.7733 41.405L13.7183 41.5372C13.5164 41.9922 13.3293 42.4546 13.1421 42.9133C12.8669 43.5812 12.5917 44.2528 12.2908 44.906C12.0449 45.4344 11.832 45.9812 11.6192 46.5317L11.3256 47.2803L11.3073 47.3243C11.2632 47.4234 11.2192 47.5225 11.322 47.6179C11.399 47.6913 11.4834 47.6362 11.5495 47.5812C11.6375 47.5078 11.7256 47.4307 11.8064 47.3463L12.2834 46.8509L12.9586 46.1537L13.6742 45.4344C14.0632 45.0454 14.4522 44.6601 14.8339 44.2601C15.1091 43.9739 15.3476 43.6472 15.5862 43.3206C15.8431 42.972 16.0999 42.6234 16.3935 42.3298C17.1785 41.5572 17.9001 40.7227 18.5513 39.8344C18.7788 39.5225 19.0174 39.2179 19.2559 38.9133C19.7807 38.2344 20.3054 37.5555 20.7275 36.7812C20.9183 36.4326 20.9623 36.1904 20.6394 35.9078C20.3935 35.6876 20.188 35.4087 19.9862 35.1372L19.9605 35.1005L19.9458 35.0821C19.8357 34.928 19.7036 34.7518 19.8284 34.506C20.0999 34.4693 20.3752 34.4583 20.6504 34.4619C21.421 34.4619 22.1917 34.4326 22.9623 34.4032L23.0981 34.3995C23.3623 34.3885 23.5348 34.2381 23.5458 33.9078C23.5627 33.4855 23.5848 33.0635 23.6119 32.6417L23.6669 31.7243C23.733 30.6784 23.799 29.6326 23.7586 28.5867C23.722 27.695 23.7073 26.7995 23.755 25.9078C23.7807 25.4674 23.6339 25.2619 23.3256 25.0674C22.4596 24.5243 21.5091 24.3959 20.5586 24.2638L20.133 24.205C19.8908 24.1683 19.81 24.3298 19.7476 24.528C19.6889 24.7188 19.6192 24.9096 19.5531 25.1005C19.4504 25.383 19.3476 25.6693 19.2742 25.9665C19.1531 26.4583 18.9807 26.928 18.8082 27.3977C18.7054 27.6766 18.6027 27.9592 18.5109 28.2417C18.3421 28.7702 18.1917 29.306 18.0412 29.8491C17.8247 30.6197 17.6082 31.4087 17.322 32.194C17.3189 32.2558 17.3103 32.3173 17.2963 32.3775ZM8.46324 26.0656L8.48158 26.1096C9.08709 27.4601 12.0119 31.8564 13.1752 33.4674L13.3403 33.695C13.9458 34.5133 15.0394 35.9959 14.7348 37.2032C14.4434 38.418 14.0252 39.5988 13.4871 40.7261C13.4541 40.7959 13.432 40.8729 13.4064 40.95C13.3725 41.1135 13.2922 41.2639 13.1752 41.383C12.6981 40.5757 12.1366 39.8417 11.5752 39.1115C11.322 38.7812 11.0687 38.4509 10.8229 38.1133C10.6467 37.8711 10.4486 37.6509 10.2541 37.4271C10.0889 37.2436 9.92379 37.0601 9.77333 36.8619C9.58617 36.6197 9.60452 36.4619 9.72195 36.2638C9.85039 36.0472 9.93113 35.8087 10.0155 35.5702L10.0816 35.372C10.2541 34.895 10.1366 34.6454 9.68526 34.5023C9.37333 34.4069 9.05406 34.4032 8.73479 34.4032C8.52929 34.4032 8.32379 34.4032 8.12195 34.3739C8.09993 34.3739 8.07424 34.3739 8.04856 34.3812L7.99718 34.3885C6.977 34.4069 6.88892 34.3151 6.56232 33.2583C6.10908 31.7916 5.80419 30.2831 5.65223 28.7555C5.61553 28.4326 5.55681 28.117 5.4981 27.8014C5.44305 27.5225 5.38801 27.2472 5.35498 26.9647C5.28158 26.3849 5.37333 26.1757 5.84305 25.9739C6.37883 25.7427 6.54397 25.5078 6.69443 25.295C6.86324 25.0564 7.01369 24.8436 7.64122 24.6858H7.64856C8.13663 24.561 8.16966 24.55 8.19168 25.1408C8.20269 25.4821 8.33846 25.783 8.46324 26.0619V26.0656Z" fill="black"/>
<path d="M27.7801 4.10968C28.0343 4.6763 28.1679 5.28962 28.1723 5.91065C28.1768 6.53168 28.0519 7.14684 27.8058 7.71702C27.3397 8.80326 26.8773 9.89317 26.4627 11.0014C25.9709 12.3078 26.1801 13.5556 26.8296 14.7812C27.6003 16.2308 28.4737 17.6363 28.9654 19.2253C29.4425 20.7849 29.637 22.3629 28.9838 23.8932C28.426 25.2106 27.7507 26.4803 26.3783 27.1886C25.3165 27.7421 24.0864 27.8795 22.9287 27.5739C21.6076 27.262 20.6425 26.4253 19.6773 25.5556C19.1189 25.0391 18.5386 24.5469 17.9379 24.0803C17.4755 23.728 17.1893 23.2436 16.8223 22.8216C16.7636 22.7556 16.7526 22.6785 16.8039 22.6088C16.8516 22.5354 16.925 22.5427 17.0094 22.5611C18.9214 23.0381 20.1764 22.0473 21.2737 20.6675C22.4003 19.251 23.0792 17.6216 23.5489 15.9005C24.1229 13.8698 24.356 11.758 24.2388 9.65096C24.1654 8.55739 24.0039 7.46014 23.7104 6.38491C23.3948 5.2473 22.9838 4.17573 22.3085 3.20326C22.0737 2.87298 21.7691 2.61243 21.5049 2.26381C20.8685 2.94233 20.1597 3.54901 19.3911 4.07298C17.8546 5.15339 16.1875 6.03501 14.4296 6.69684C12.8663 7.30968 11.2003 7.49317 9.61495 7.99592C9.07205 8.16295 8.61209 8.52855 8.32687 9.01977C7.81949 9.85637 7.63791 10.8505 7.81678 11.8124C7.85348 12.0033 7.92321 12.2345 7.66265 12.2675C7.42412 12.2968 7.47183 12.04 7.42779 11.8822C7.25165 11.24 7.12687 10.5831 6.87733 9.95922C6.59843 9.26197 5.71036 8.73353 5.07917 8.9317C4.88618 8.99953 4.71171 9.11149 4.56963 9.25866C4.42756 9.40584 4.32181 9.58415 4.26082 9.7794C3.8474 10.8255 3.70109 11.958 3.83513 13.0748C3.93421 13.8344 4.35256 14.4216 4.77825 15.0124C5.35807 15.8271 5.73238 15.9299 6.67917 15.6546C6.9911 15.5592 7.13421 15.35 7.27733 15.1042C7.33605 14.9978 7.40944 14.8693 7.55623 14.8987C7.69935 14.9207 7.81311 15.0308 7.84981 15.1739C8.14339 16.5097 8.59476 17.8088 8.6388 19.1996C8.70119 21.24 6.91403 23.1005 4.98742 23.1335C3.77642 23.1556 2.6021 22.9867 1.41678 22.8033C0.596429 22.6792 -0.239861 22.7091 -1.04927 22.8913C-1.92634 23.0858 -2.77404 23.317 -3.49331 23.8858C-3.6878 24.04 -3.8456 23.9629 -3.97771 23.739C-4.70432 22.5134 -5.38689 21.273 -5.7612 19.8858C-6.23826 18.0987 -6.45845 16.3299 -5.94836 14.4877C-5.74652 13.7537 -5.57404 13.0198 -5.23643 12.3372C-4.61992 11.0895 -3.80524 10.0106 -2.6456 9.21794C-1.3612 8.3372 -0.0694561 7.47115 1.21495 6.59408C2.27917 5.87115 3.08651 4.90601 3.78376 3.84179C5.04981 1.91152 6.49201 0.135369 8.3232 -1.27748C9.5966 -2.2683 10.9838 -3.09032 12.5654 -3.47197C13.6883 -3.75087 14.8553 -3.80225 16.0003 -3.62243C16.8663 -3.49032 17.7067 -3.31417 18.47 -2.87747C18.925 -2.61692 19.3948 -2.36004 19.7911 -2.02243C20.2382 -1.67003 20.7491 -1.40713 21.2957 -1.24812C22.7636 -0.760044 24.1104 -0.0701356 25.3104 0.902341C26.3746 1.76473 27.292 2.75188 27.7801 4.10601V4.10968Z" fill="black"/>
<path d="M19.2298 19.6689C19.406 19.1478 19.3766 19.0744 18.8702 18.9827C18.4959 18.9166 18.1619 18.7515 17.806 18.6377C17.406 18.5093 17.1454 18.1313 16.7234 18.0322C16.5032 19.1258 17.9601 20.1056 19.2262 19.6726L19.2298 19.6689Z" fill="white"/>
<path fill-rule="evenodd" clip-rule="evenodd" d="M16.6096 19.507C16.9297 19.826 17.3219 20.0632 17.753 20.1987C18.1842 20.3341 18.6416 20.3637 19.0866 20.285L19.3215 20.1932C19.4976 20.1235 19.6591 20.0648 19.8059 19.9804C19.9967 19.8703 20.1472 19.6428 19.982 19.474C19.6151 19.096 19.7986 18.8795 20.1288 18.6593C20.2756 18.5639 20.3637 18.4318 20.2866 18.2666C20.1875 18.0464 19.993 18.1272 19.8463 18.1932C19.6423 18.2713 19.4261 18.3123 19.2077 18.3143C18.2976 18.4171 17.56 17.9841 16.8297 17.562L16.8077 17.551C16.3747 17.2941 16.1105 17.3822 16.0554 17.8886C16.0116 18.183 16.0391 18.4837 16.1355 18.7653C16.2319 19.0469 16.3945 19.3012 16.6096 19.507ZM18.8701 18.9822C19.3802 19.074 19.4059 19.1474 19.2261 19.6721C17.96 20.1052 16.5031 19.1217 16.7233 18.0318C16.9435 18.0868 17.127 18.2152 17.3031 18.3474C17.4537 18.4719 17.6235 18.571 17.8059 18.6409C17.927 18.6776 18.0444 18.7217 18.1619 18.7657C18.393 18.8538 18.6206 18.9418 18.8701 18.9859V18.9822Z" fill="black"/>
<path d="M15.4866 17.3203C15.7876 17.4561 15.7692 17.6616 15.6408 17.8708C15.5454 18.0359 15.4022 18.135 15.2114 18.0176C15.0353 17.9075 15.0756 17.757 15.1747 17.6139C15.2554 17.5038 15.2848 17.346 15.4866 17.3203Z" fill="black"/>
<path d="M19.8804 11.5375C19.727 12.517 19.7682 13.5171 20.0015 14.4807C20.174 15.3027 19.4437 16.477 18.2841 16.3045C17.8804 16.2458 17.6419 16.0073 17.5024 15.6513C17.4401 15.4935 17.4474 15.3284 17.6235 15.2476C17.7703 15.1852 17.8951 15.2403 17.9685 15.3944C18.1446 15.7651 18.4602 15.7394 18.7722 15.6476C19.1245 15.5412 19.374 15.2953 19.3997 14.9174C19.4254 14.5467 19.407 14.1724 19.341 13.8018C19.1309 12.6987 19.2431 11.5584 19.6639 10.5174C19.7446 10.3082 19.8621 10.1174 20.1006 10.2128C20.3758 10.3229 20.1667 10.5357 20.1263 10.6935C20.0639 10.9651 19.9722 11.2329 19.8804 11.5375Z" fill="black"/>
<path d="M21.3365 13.4495C21.8136 13.4605 22.2686 13.4898 22.7163 13.5412C22.8264 13.5559 22.8998 13.6623 22.8998 13.7871C22.8998 13.9082 22.8374 13.9926 22.7273 14.044C22.3163 14.2201 21.92 14.3449 21.4906 14.0513C21.2521 13.8862 21.1604 13.732 21.3365 13.4495ZM15.4723 13.2476C15.7292 13.2476 15.7585 13.3871 15.7292 13.5596C15.6558 13.9339 14.9952 14.3816 14.6136 14.3119C14.3971 14.2752 14.2283 14.1651 14.2209 13.9265C14.2136 13.6807 14.3971 13.6256 14.5989 13.6183C14.9292 13.6073 15.1787 13.4274 15.4723 13.2513V13.2476ZM14.2796 11.7651C14.4631 11.3247 14.6099 10.6862 15.164 10.9394C15.9237 11.2843 15.6741 12.066 15.52 12.6788C15.4613 12.91 14.9879 13.2623 14.8484 13.2036C14.2503 12.9541 14.1439 12.4073 14.2796 11.7651ZM22.6062 13.1155C22.2906 13.3908 21.9824 13.3944 21.7916 13.0605C21.4613 12.4733 21.476 11.8568 21.9127 11.3284C22.0044 11.2183 22.4191 11.1963 22.5108 11.2917C23.0246 11.8421 23.0466 12.4586 22.6062 13.1155Z" fill="black"/>
<path d="M16.1514 9.6799C15.8321 9.23586 15.2266 9.09274 14.7276 9.22118C14.2872 9.33861 13.9312 9.62485 13.4945 9.74962C13.3477 9.78999 13.2193 9.8487 13.1386 9.67256C13.0688 9.52944 13.0835 9.401 13.2193 9.29458C13.9092 8.76981 15.1863 8.30742 16.1074 8.82118C16.3315 8.95895 16.5201 9.14752 16.6578 9.37164C16.7789 9.54412 16.823 9.79733 16.6578 9.92577C16.4413 10.0946 16.2909 9.88173 16.1514 9.6799ZM22.9734 9.90008C22.6175 9.66155 22.2798 9.63219 21.9459 9.87072C21.8285 9.95513 21.7 10.0469 21.5789 9.90008C21.4578 9.74962 21.4909 9.58448 21.6266 9.43769C21.8321 9.21384 22.111 9.17714 22.3899 9.14412C22.7142 9.11331 23.0374 9.21165 23.2896 9.41777C23.5418 9.62389 23.7024 9.92116 23.7367 10.245C23.7441 10.4028 23.7367 10.579 23.5459 10.623C23.3734 10.6597 23.2413 10.5606 23.1716 10.4065C23.1019 10.2524 23.0542 10.0872 22.9734 9.90008ZM19.4358 9.21017C19.6266 8.96797 19.7294 8.65971 19.9679 8.45421C20.0597 8.37714 20.1294 8.25237 20.2799 8.33678C20.4156 8.41384 20.4266 8.55329 20.3899 8.66705C20.2762 8.98265 20.1441 9.29458 19.9973 9.59916C19.9239 9.74595 19.7404 9.801 19.5936 9.75329C19.3514 9.6799 19.4101 9.46338 19.4321 9.2432V9.2065L19.4358 9.21017Z" fill="black"/>
<path d="M19.4395 9.20282C19.3661 9.35695 19.3074 9.51475 19.2303 9.66521C19.1716 9.77897 19.0762 9.87805 18.9367 9.83402C18.7679 9.78264 18.7532 9.63952 18.7899 9.49273C18.834 9.34227 18.8817 9.19915 18.9367 9.05237C19.0101 8.87989 18.9918 8.59732 19.278 8.63769C19.5863 8.68539 19.4395 8.94594 19.4395 9.16613V9.20282Z" fill="black"/>
<path d="M34.2589 48.2528L29.5433 48.3262C29.5433 48.3262 29.8001 46.8069 29.9689 46.2712C30.3286 45.1189 29.4405 45.0638 29.2937 44.2895C29.1469 43.5079 29.3818 43.3501 29.4552 42.9207C29.5286 42.4877 29.1689 42.5317 28.9267 42.2895C28.6845 42.0436 28.8387 41.9959 28.9561 41.5813C29.0735 41.1666 28.1855 41.3721 27.7194 40.7005C27.2534 40.0326 27.4405 39.3794 27.4405 39.3794C27.4405 39.3794 26.9121 39.2914 27.0001 38.7482C27.0882 38.2051 27.2937 37.5005 27.9543 37.1446C28.6148 36.7923 32.3139 36.3372 32.3139 36.3372C32.3139 36.3372 32.0203 33.1409 31.9946 32.4583C31.9726 31.7794 32.2148 30.0216 32.7983 29.9409C33.3781 29.8565 33.6864 32.0033 33.8478 32.9721C34.0093 33.9446 35.0809 37.0455 35.1983 37.9849C35.3157 38.9244 35.0075 41.7611 34.9781 42.2418C34.9488 42.7299 34.3322 43.8895 34.0974 44.5941C33.8625 45.2987 34.2589 48.2528 34.2589 48.2528Z" fill="white"/>
<path d="M29.4107 48.3298C29.374 47.6876 29.5942 47.0821 29.6969 46.4509C29.774 45.9555 29.796 45.5629 29.4217 45.1225C29.1973 44.8659 29.0577 44.5462 29.0223 44.2071C28.9868 43.8681 29.0571 43.5264 29.2235 43.2289C29.363 42.9574 29.3263 42.7996 29.0584 42.6674C28.3832 42.3298 28.3318 42.1243 28.7318 41.4418C27.7006 41.1996 27.3226 40.7445 27.2713 39.706C27.2676 39.6142 27.2786 39.4858 27.2272 39.4381C26.3575 38.6748 27.1098 38.0693 27.4401 37.4491C27.6859 36.9904 28.13 36.8069 28.6621 36.7152C29.6346 36.5537 30.5924 36.3372 31.5868 36.3702C31.8437 36.3775 31.9355 36.2454 31.9795 36.0032C32.0823 35.4124 31.9942 34.8142 31.9428 34.2307C31.8731 33.394 31.7483 32.3849 31.8327 31.5335C31.8914 30.9977 32.7135 29.6986 32.8529 29.695C33.1722 29.684 33.3373 29.8161 33.3667 30.1574C33.385 30.3885 33.6309 31.8968 33.7373 32.3225C34.0676 33.6289 34.6291 34.8913 35.0768 36.6638C36.1336 40.8252 35.0254 42.5427 34.4199 44.6931C34.0566 45.9775 34.6327 48.3335 34.6327 48.3335C34.6327 48.3335 34.185 48.3335 33.9245 48.2968C33.8291 47.3427 33.763 46.4289 33.7153 45.5152C33.6859 44.9757 33.6602 44.4436 33.9612 43.9372C34.2694 43.4161 34.574 42.8729 34.6768 42.2674C34.8969 41.0381 35.0474 39.7977 34.9777 38.539C34.963 38.2271 34.8749 37.9372 34.8052 37.6363C34.6841 37.1041 34.4382 36.6197 34.2621 36.117C34.0309 35.4748 34.1006 34.7849 33.8401 34.161C33.7373 33.9152 33.7006 33.6546 33.6492 33.394C33.4291 32.3225 33.1685 31.2583 32.9153 30.1574C32.781 30.2292 32.6675 30.3345 32.5858 30.4631C32.5042 30.5917 32.4571 30.7392 32.4492 30.8913C32.4125 31.4711 32.2768 32.0399 32.3281 32.6197C32.4162 33.684 32.4346 34.7555 32.585 35.8161C32.6107 36.0363 32.6657 36.2124 32.8639 36.3225C32.996 36.3959 33.0878 36.506 33.0364 36.6674C32.9777 36.8509 32.8162 36.8179 32.6841 36.7812C32.5373 36.7445 32.4089 36.7849 32.2694 36.7849C31.3887 36.7922 30.5446 37.0307 29.6713 37.1152C28.7428 37.1996 27.8474 37.4454 27.5061 38.5096C27.4657 38.6381 27.3263 38.7739 27.4621 38.884C27.5795 38.983 27.7043 39.0968 27.9208 39.0124C29.3153 38.4803 30.7758 38.4069 32.2474 38.4436C32.4492 38.4546 32.6511 38.506 32.8346 38.5977C32.9557 38.6601 33.0547 38.7298 33.0107 38.8803C32.974 39.0087 32.8566 39.0161 32.7391 39.0014C31.829 38.9023 30.9373 39.0711 30.0382 39.1629C29.4364 39.2216 28.8272 39.2509 28.2584 39.4931C28.0272 39.5959 27.8364 39.7133 27.7997 39.9739C27.763 40.2418 27.8657 40.4583 28.0749 40.6344C28.2474 40.7812 28.4419 40.7849 28.6511 40.7849H32.7795C32.9667 40.7849 33.1538 40.7996 33.341 40.8216C33.4327 40.8289 33.5245 40.884 33.5318 40.994C33.5465 41.0968 33.4841 41.1665 33.407 41.2289C33.2969 41.3096 33.1722 41.306 33.0474 41.3207C32.207 41.4197 31.363 41.3794 30.519 41.3794C29.9502 41.3794 29.4547 41.5408 29.0511 42.0216C29.6015 42.2968 30.1116 42.594 30.6474 42.8106C31.1905 43.0271 31.8437 42.7005 32.4162 43.0674C31.7924 43.6289 30.963 43.6252 29.7373 43.0858C29.6639 43.7537 29.429 44.4069 30.0456 44.9574C30.2657 45.1518 30.3391 45.4087 30.3502 45.7096C30.3832 46.6124 30.0823 47.4601 29.9355 48.3335H29.4107V48.3298Z" fill="black"/>
</g>
</g>
<defs>
<clipPath id="clip0_43_2806">
<path d="M0 16C0 7.16344 7.16344 0 16 0C24.8366 0 32 7.16344 32 16C32 24.8366 24.8366 32 16 32C7.16344 32 0 24.8366 0 16Z" fill="white"/>
</clipPath>
</defs>
</svg>
