<svg width="48" height="48" viewBox="0 0 48 48" fill="none" xmlns="http://www.w3.org/2000/svg">
<g clip-path="url(#clip0_43_2925)">
<mask id="mask0_43_2925" style="mask-type:luminance" maskUnits="userSpaceOnUse" x="0" y="0" width="48" height="48">
<path d="M48 0H0V48H48V0Z" fill="white"/>
</mask>
<g mask="url(#mask0_43_2925)">
<path d="M35.7234 42.8635C30.2629 59.2121 15.6977 64.2543 7.99682 43.9534C6.93444 41.1626 9.70325 40.1277 11.6409 38.8947C12.9675 38.0525 13.6665 37.3259 13.584 36.5718C13.1987 33.0268 11.5528 23.1516 11.5528 23.1516L11.3877 22.8323C11.3877 22.8323 11.4262 22.7442 11.2665 22.8984C11.1014 23.0635 10.7216 24.7809 9.22985 24.7809C7.88123 24.7809 6.52159 24.1809 5.87205 20.0305C5.62435 18.5277 5.75646 14.5864 7.42985 13.8708C8.11792 13.5791 8.75095 13.4745 9.36747 13.8268C9.98948 14.1791 8.65187 12.6158 15.5326 6.89102C20.0023 3.15891 27.0647 2.61396 29.9161 3.24699C32.7675 3.88001 35.6133 5.27268 36.8739 8.22864C38.4042 11.8066 35.4482 14.5204 36.1032 22.6782C35.9821 25.6286 36.1473 32.102 28.0335 34.2708C26.4922 34.6837 26.9711 36.9351 29.2831 37.4855C32.9711 38.6415 35.7234 41.4653 35.7234 42.8745" fill="white"/>
<path fill-rule="evenodd" clip-rule="evenodd" d="M35.7238 17.4602L35.7293 17.3831C35.9549 15.3795 36.1806 13.4364 37.221 11.6914C37.5788 11.9336 37.5348 12.2419 37.4247 12.5281C36.3293 15.3465 36.4338 18.2749 36.5329 21.2033L36.5549 21.974C36.6705 25.629 35.7568 28.9538 33.3238 31.7446C32.476 32.7134 31.3531 33.385 30.2137 33.963C29.0357 34.5685 28.788 35.0694 29.1568 36.363L29.2008 36.5061C29.2779 36.7208 29.3549 36.9409 29.1458 37.1556C28.8981 37.4088 28.6228 37.3373 28.3311 37.2547L28.2981 37.2492C25.5688 36.485 23.0097 35.2092 20.7568 33.4896C20.4265 33.2474 20.1623 32.9226 19.9036 32.6033L19.8871 32.5813C19.7494 32.4162 19.7219 32.152 19.9146 32.0088C20.0962 31.8712 20.2338 31.9813 20.3935 32.1079L20.4485 32.1575C21.6505 33.1327 23.1093 33.7388 24.6485 33.9024C25.3861 33.9795 26.1127 33.952 26.8504 33.9244C27.2577 33.9079 27.665 33.8914 28.0779 33.8969C28.6394 33.8969 29.1072 33.6382 29.5476 33.3905L29.7017 33.3024C31.232 32.4492 32.6907 31.4969 33.676 29.9611C34.5623 28.585 35.1017 27.0877 35.4155 25.5079C35.8118 23.5208 35.7788 21.5061 35.7458 19.4639C35.7293 18.8033 35.7183 18.1318 35.7183 17.4602H35.7238ZM8.01366 13.3098C9.21917 13.2162 9.88522 13.9263 10.4522 14.7575C11.1242 15.773 11.5467 16.933 11.6852 18.1428C11.7127 18.3465 11.7403 18.5611 11.6192 18.7648C11.3715 18.7978 11.3494 18.5997 11.3439 18.4565C11.3164 17.3171 10.81 16.3263 10.3036 15.3685C9.94027 14.6804 9.41183 14.0143 8.57513 13.8492C7.62834 13.6565 6.75862 14.5098 6.32926 15.6217C5.5311 17.6914 5.66871 19.7281 6.40632 21.7318C6.72559 22.607 7.12743 23.4987 7.9366 24.1098C8.75128 24.7318 9.7366 24.6217 10.3366 23.796L10.4467 23.6584C10.5568 23.5153 10.6669 23.3776 10.7219 23.218C10.8375 22.8987 11.0192 22.6015 11.3439 22.6455C11.7183 22.7006 11.7843 23.1024 11.8228 23.4162C12.1643 26.2998 12.5681 29.1757 13.0338 32.0419L13.3586 34.1776C13.5017 35.1189 13.6669 36.4731 13.5568 37.0455C13.5497 37.0857 13.5442 37.1261 13.5403 37.1666C13.5183 37.3208 13.5072 37.4419 13.3091 37.4694C13.0394 37.5134 12.9238 37.3593 12.8852 37.1171C12.7586 36.1813 12.7201 35.818 12.665 34.3868C12.6155 32.9997 12.3568 31.6345 12.0926 30.2639L11.8173 28.7776C11.5311 27.0822 11.2504 25.3648 11.2228 23.4382L11.1127 23.6033C10.6944 24.2254 10.3586 24.7318 9.76412 24.9244C9.32282 25.0935 8.8392 25.118 8.38308 24.9943C7.92697 24.8706 7.52195 24.6052 7.22651 24.2364C6.45084 23.3603 5.90596 22.3046 5.64119 21.1648C5.1788 19.2932 5.09623 17.4712 5.69073 15.6272C5.97697 14.7409 6.99532 13.1666 8.01366 13.3153V13.3098ZM9.91825 20.3281C10.1605 20.5043 10.3806 20.6584 10.5788 20.0309C10.5183 17.7079 9.76963 16.2217 8.60816 16.1611C9.22467 16.9648 9.81917 17.7465 9.87421 18.8309C9.64516 18.7139 9.44421 18.5486 9.28522 18.3465C9.17513 18.2254 9.06504 18.1042 8.92743 18.0162L8.76229 17.8841C8.49807 17.6859 8.22834 17.4767 7.78247 17.6364C7.99165 17.9556 8.27788 18.1868 8.56963 18.407C8.8999 18.6657 9.23018 18.9189 9.42834 19.3153C8.84486 19.7391 8.59165 20.2896 8.8944 20.9611C9.15862 21.5391 9.54944 22.018 10.3201 22.051C10.2871 21.7043 10.0614 21.451 9.83568 21.2033C9.56045 20.9061 9.30174 20.6198 9.42284 20.1795C9.59899 20.0969 9.76412 20.218 9.91825 20.3281Z" fill="black"/>
<path d="M58.0953 72.6049L-13.668 72.4122C-13.668 72.4122 -11.0973 55.6727 -4.23311 47.9168C-1.15604 44.4434 1.40359 41.014 8.27882 38.548C9.4568 38.1241 11.2018 33.7039 12.1375 33.2416C13.0238 32.8012 12.4403 36.115 13.2605 36.7865C14.9329 38.1821 16.6985 39.4621 18.5449 40.6177C21.7871 42.6654 23.2788 46.9425 23.2788 46.9425C23.2788 46.9425 24.732 42.8195 25.943 40.7938C26.7962 39.3627 29.6476 35.1572 29.6476 35.1572C29.6476 35.1572 34.8605 36.7865 36.7926 38.2232C37.9651 39.0929 37.277 38.9003 42.5944 41.9388C47.2128 44.5755 51.743 51.7975 54.1541 57.792C56.7192 64.1663 58.0953 72.5994 58.0953 72.5994V72.6049Z" fill="white"/>
<path fill-rule="evenodd" clip-rule="evenodd" d="M57.7432 72.6051C57.3744 71.1189 57.0552 69.6327 56.7359 68.1409C56.5983 67.4804 56.4607 66.8198 56.312 66.1703C55.8607 64.1336 55.2662 62.1519 54.6111 60.1813C53.98 58.2642 53.2072 56.3967 52.2992 54.5941C51.3972 52.7536 50.3672 50.9786 49.2166 49.2822C47.5653 46.8987 45.7708 44.6308 43.3928 42.9299C41.6643 41.6969 39.7487 40.7721 37.8387 39.8529C37.1616 39.5226 36.468 39.6767 35.791 39.8253L35.5708 39.8804C35.0258 39.9905 34.4919 40.1116 33.9524 40.2327C33.306 40.3799 32.6583 40.5212 32.0093 40.6565C31.7286 40.7116 31.624 40.8767 31.5414 41.1079L31.2111 42.0712C30.9854 42.7428 30.7543 43.4143 30.5451 44.0914C30.402 44.5428 30.1598 44.7409 29.6809 44.7299C29.2735 44.7244 28.8662 44.7299 28.4588 44.7409C28.0185 44.7464 27.5836 44.7574 27.1487 44.7464C26.3781 44.7299 25.9983 45.0051 26.0919 45.9299C26.1965 46.9207 26.1909 47.9171 26.1909 48.9189C26.1909 49.5079 26.1909 50.0969 26.2075 50.6914C26.2625 52.2051 26.2625 53.7354 26.235 55.2437C26.1799 58.0675 26.1799 60.8914 26.1799 63.7207C26.1854 66.6492 26.1909 69.5831 26.1249 72.5391C25.9133 72.601 25.6889 72.6048 25.4754 72.5501C25.4038 69.5721 25.3708 66.6437 25.3873 63.7152C25.3983 61.9648 25.3873 60.2088 25.3818 58.4529C25.3598 54.9354 25.3432 51.418 25.4809 47.9006C25.4919 47.7079 25.4258 47.5318 25.2111 47.5262C25.0856 47.6667 24.959 47.8062 24.8313 47.9446C24.1267 48.7152 23.4332 49.4749 23.1029 50.5813C22.646 50.0529 22.4588 49.4363 22.2717 48.8473C22.068 48.1923 21.8698 47.5648 21.3359 47.0914C21.2258 47.4107 21.2258 47.7024 21.2258 47.9996V49.8162L21.2368 53.6143L21.2313 58.2602C21.2258 61.618 21.2203 64.9703 21.2313 68.3226C21.2368 68.7299 21.2313 69.1373 21.2148 69.5391C21.1928 70.5629 21.1653 71.5868 21.3249 72.5996H20.5432C20.471 71.4543 20.4362 70.3069 20.4387 69.1593V47.196C20.4387 45.8749 20.0148 45.5006 18.7543 45.1593C16.6625 44.6088 14.5598 44.0088 12.9524 42.4235C12.3579 41.84 11.7194 42.1318 11.1909 42.3684L11.1249 42.4015C10.6515 42.6217 10.1616 42.7813 9.67168 42.9409C9.01114 43.1611 8.35058 43.3813 7.73957 43.7281C7.61297 43.7941 7.49737 43.8712 7.37627 43.9483C7.14705 44.1029 6.90377 44.2356 6.64967 44.3446L6.52856 44.3996C6.36343 44.4767 6.20379 44.5483 6.01664 44.3721C5.80746 44.185 5.81297 43.9868 5.90655 43.7391L6.22031 42.7978C6.49554 41.9611 6.77077 41.1299 7.13407 40.3207L7.18912 40.2107C7.26618 40.084 7.33774 39.9574 7.26618 39.7868C7.046 39.6382 6.84233 39.7483 6.66068 39.8473L6.56159 39.9024L6.44049 39.9574L6.3304 40.0125C3.99645 41.185 1.66251 42.3574 -0.264095 44.196C-1.63785 45.4848 -2.90784 46.88 -4.06226 48.3684C-6.28027 51.3148 -8.08934 54.5479 -9.44024 57.9795C-10.7393 61.2162 -11.8623 64.5299 -12.4292 67.9978C-12.5393 68.6363 -12.6384 69.2749 -12.743 69.9189L-13.1779 72.5446C-13.4806 72.5996 -13.7724 72.5996 -14.1191 72.5996C-13.8659 70.7831 -13.5742 68.9666 -13.2274 67.1556C-13.1008 66.5006 -12.9357 65.8565 -12.765 65.2125C-12.6659 64.8162 -12.5613 64.4253 -12.4733 64.029C-12.1611 62.7894 -11.7882 61.5659 -11.3558 60.3629L-11.3008 60.2143C-10.1568 56.7577 -8.60455 53.45 -6.67694 50.3611C-5.74691 48.8799 -4.69756 47.4771 -3.53932 46.1666C-1.44758 43.7831 0.864345 41.6529 3.76526 40.3152C5.33957 39.5886 6.80379 38.7189 8.25701 37.7941C8.66985 37.5299 8.86251 37.1501 9.06067 36.7703C9.13774 36.6327 9.2093 36.4895 9.29737 36.3519C10.1065 35.0584 10.9487 33.7978 12.2203 32.8951L12.3084 32.829C12.468 32.7024 12.6221 32.5868 12.8423 32.7189C13.0405 32.829 13.0295 32.9996 13.024 33.1813V33.3354C13.057 34.2492 13.1341 35.1574 13.2111 36.0657C13.2387 36.3574 13.3598 36.6162 13.6515 36.7483C14.8845 37.3152 15.9359 38.1409 16.9873 38.9721C17.6203 39.4675 18.2533 39.9629 18.9249 40.4033C20.5442 41.4315 21.8863 42.8416 22.8331 44.5097C22.9432 44.7079 23.0258 44.9171 23.1194 45.1593L23.2625 45.5226C23.7744 43.4584 24.8754 41.7684 25.9763 40.0895L26.6203 39.0987C26.7304 38.9226 26.8185 38.7354 26.9065 38.5483C27.0276 38.2951 27.1487 38.0418 27.3359 37.8107C27.4713 37.6458 27.5559 37.4451 27.5793 37.233C27.6028 37.021 27.5641 36.8066 27.468 36.6162C27.3469 36.3574 27.2809 36.0877 27.3854 35.807C27.8533 35.6639 28.101 35.9336 28.3653 36.2143L28.4203 36.2694C28.9157 35.9501 28.8607 35.5373 28.602 35.0969C28.5139 34.9428 28.4368 34.7941 28.5689 34.6455C28.6955 34.5079 28.8662 34.5244 29.0313 34.574C31.0735 35.1629 33.1047 35.785 34.9873 36.8088C35.246 36.9519 35.5157 37.084 35.7854 37.2107C36.5176 37.5629 37.2497 37.9152 37.7836 38.5042C38.6313 39.44 39.7157 39.9464 40.8001 40.4529C41.4497 40.7611 42.0937 41.0584 42.6937 41.4547C44.0396 42.2946 45.2845 43.2864 46.4038 44.4107C47.6698 45.7483 48.8533 47.1629 49.8827 48.6822C50.7854 50.0033 51.6442 51.3574 52.3928 52.7831C53.4124 54.7247 54.2953 56.7351 55.035 58.7996C55.7231 60.7097 56.312 62.6474 56.835 64.607C57.2093 66.0272 57.4515 67.4694 57.6882 68.9171C57.8919 70.1281 58.09 71.3391 58.3708 72.5501C58.1946 72.6051 58.002 72.6051 57.7432 72.6051ZM21.8368 44.2675C20.5658 42.7446 19.0762 41.4183 17.4166 40.3318C16.9197 40.0037 16.4436 39.6452 15.9909 39.2584C15.3304 38.7189 14.6698 38.174 13.8882 37.8162C12.9634 37.3978 12.468 36.8033 12.435 35.807V35.6749C12.4295 35.4602 12.424 35.2455 12.3965 35.0363C12.3524 34.618 11.8625 34.3978 11.6038 34.7116C11.5157 34.8217 11.4111 34.9097 11.3121 35.0033C11.167 35.1227 11.0392 35.2617 10.9322 35.4162C9.66618 37.4308 8.41113 39.4455 7.49737 41.6529C7.37627 41.9501 7.2937 42.3409 7.54691 42.5831C7.75058 42.7813 8.0093 42.6767 8.26251 42.5721C8.30625 42.5531 8.35029 42.5347 8.39462 42.5171L9.46801 42.1097C10.1891 41.8235 10.9157 41.5428 11.6588 41.3171C12.446 41.0804 13.046 41.218 13.602 41.84C14.1907 42.4666 14.9106 42.9553 15.7102 43.2712C16.5854 43.6565 17.4827 43.9483 18.3799 44.2455C19.1616 44.5042 19.9432 44.7629 20.7084 45.0767C21.6497 45.462 22.5249 45.9629 22.5139 47.196C22.5139 47.3886 22.5579 47.5813 22.8772 47.5538C23.0368 47.1134 23.0368 46.673 22.8166 46.2327L22.5304 45.6492C22.3102 45.2088 22.09 44.7574 21.8368 44.2675ZM31.8166 36.2914L32.312 36.4675L34.7616 37.596C35.2057 37.7976 35.6498 37.9994 36.0937 38.2015C36.2698 38.284 36.4625 38.3666 36.4625 38.5923C36.4625 38.8345 36.2698 38.8675 36.0937 38.9006L35.9946 38.9226C35.7281 38.9866 35.462 39.0527 35.1965 39.1207C34.5139 39.2914 33.8313 39.462 33.1322 39.5666C31.668 39.7868 30.8754 40.3758 30.4735 41.785C30.424 41.9611 30.3634 42.1373 30.2974 42.3079C30.2093 42.5556 30.1267 42.8033 30.0772 43.0455C29.9396 43.7061 29.5157 43.7721 29.0038 43.8162L28.0295 43.9262C27.4955 43.9813 26.9616 44.0473 26.4221 44.0804C25.9818 44.1079 25.7286 44.3336 25.5634 44.6859C25.4368 44.9501 25.2937 45.2033 25.1561 45.4565C24.8919 45.9354 24.6221 46.4143 24.4625 46.9428C24.3854 47.185 24.2754 47.5483 23.8185 47.5373C23.9286 46.2162 24.2588 44.9336 24.7818 43.7226C25.1396 42.8969 25.6405 42.1648 26.1414 41.4382C26.5598 40.8217 26.9781 40.2051 27.3139 39.5446C27.9304 38.3061 28.8332 37.3207 29.7469 36.3354L30.0331 36.0217C30.2258 35.807 30.3579 35.7464 30.6166 35.8455C31.0185 36.0107 31.4203 36.1538 31.8276 36.2969L31.8166 36.2914Z" fill="black"/>
<path fill-rule="evenodd" clip-rule="evenodd" d="M35.9998 51.82C35.6805 49.8714 35.7245 48.0218 36.6218 46.1448C38.2236 47.9503 38.1851 50.053 38.1521 52.1062L38.1411 52.9705C38.4163 53.075 38.5649 52.976 38.697 52.8879L38.8291 52.8108C39.5172 52.5081 39.7264 52.6347 39.842 53.3998C40.0511 54.787 40.0622 56.1906 40.0732 57.5888L40.0787 58.1943C40.0787 58.5741 39.875 58.8494 39.6108 59.0255C38.9034 59.5502 38.2637 60.1603 37.7062 60.842C37.3429 61.2439 36.9796 61.6512 36.5833 62.02C36.0383 62.5154 35.1135 62.6806 34.5135 62.2237L33.9355 61.7888C33.0658 61.1393 32.2016 60.4952 31.3759 59.7851C30.9772 59.4775 30.6725 59.0644 30.4964 58.5926C30.3203 58.1208 30.2799 57.6091 30.3796 57.1154C30.4732 56.5429 30.5227 55.9595 30.5722 55.3705C30.6163 54.9081 30.6548 54.4457 30.7154 53.9833C30.8695 52.8439 31.0842 52.7117 32.119 53.1631C32.2126 53.2017 32.3062 53.2292 32.3998 53.2512C32.6475 53.3173 32.9062 53.3888 33.1319 53.6916L33.242 52.8659C33.33 52.2053 33.4126 51.5943 33.4071 50.9723V50.9393C33.4071 50.8512 33.4071 50.7411 33.3631 50.7081C32.3722 50.0365 32.5539 49.1558 32.9943 48.3026L33.0493 48.1925C33.3738 47.6564 33.596 47.0647 33.7044 46.4475C33.7044 46.3815 33.7649 46.3209 33.8144 46.2604L33.8805 46.1833L33.9631 46.1998L34.0456 46.2218C34.1282 46.7943 34.431 47.2512 34.7282 47.7136C34.9814 48.1044 35.2346 48.4952 35.3612 48.9521C35.5044 49.4971 35.4163 49.9539 35.0255 50.3007C34.6401 50.6475 34.5851 51.0494 34.6401 51.5117L34.6787 51.842C34.7117 52.1007 34.7447 52.365 34.7557 52.6292C34.8053 53.6035 34.9539 53.7246 36.0163 53.5319C36.1209 52.9815 36.0878 52.431 35.9998 51.82ZM37.6126 59.6365C37.6677 59.5815 37.7337 59.5319 37.7943 59.4824C37.9247 59.3654 38.0626 59.2569 38.2071 59.1576C38.9777 58.6622 39.3521 58.0237 39.2199 57.0494C39.1484 56.5154 39.1649 55.976 39.1649 55.431C39.1759 55.1503 39.1759 54.8695 39.1704 54.5888V54.4567C39.1704 54.2035 39.1704 53.9448 38.9502 53.7411C38.697 53.7962 38.4603 53.9062 38.2291 54.0163C37.8988 54.165 37.5686 54.3136 37.2108 54.3136C36.8034 54.3136 36.3961 54.3246 35.9888 54.3411C34.6897 54.3851 33.3906 54.4347 32.1411 53.9117C31.7117 53.7301 31.541 53.8677 31.519 54.3191C31.464 55.42 31.3264 56.5099 31.1282 57.5888L31.1227 57.6108C31.0566 57.9576 30.9851 58.365 31.3209 58.6457C32.5116 59.6214 33.7079 60.5902 34.9099 61.5521C35.3392 61.9044 35.7796 61.8273 36.0713 61.409C36.305 61.0975 36.5607 60.8032 36.8365 60.5283C37.0952 60.253 37.3649 59.9668 37.6071 59.6365H37.6126ZM36.4952 49.3044C36.5612 49.3374 36.6328 49.376 36.7044 49.3484L37.3649 49.2659C36.9245 49.7173 36.6548 49.7228 36.2034 49.3099C36.308 49.2053 36.4016 49.2549 36.4952 49.3044Z" fill="black"/>
<path d="M39.0769 11.1959C35.2182 11.9665 29.0585 8.23989 24.4457 5.38301C24.176 5.21787 23.8237 5.20687 23.6915 5.6032C23.031 7.59035 21.3576 8.64173 19.8218 9.81971C19.1998 10.2986 18.5558 10.772 17.8952 11.1959C16.2604 12.2472 15.7099 13.9977 14.9778 15.6326C14.3998 16.9426 13.5301 17.9555 12.1539 18.4619C11.5099 18.7041 11.3668 18.6105 11.3723 17.9059C11.3778 16.6949 11.042 15.539 10.3374 14.6032C9.21448 13.117 8.20164 12.8858 6.62182 13.9757C6.26403 14.2234 6.12091 14.7848 5.85118 15.2362C5.31724 15.0491 5.10256 14.5316 4.84935 14.1408C3.48971 12.0546 2.91724 9.71512 2.77962 7.25457C2.71907 6.0821 3.1154 4.98118 3.42916 3.89677C3.91216 2.0368 4.89211 0.34329 6.26403 -1.00231C7.57412 -2.24635 9.14292 -2.90139 10.8934 -3.2702C12.3576 -3.57295 13.8108 -3.628 15.2805 -3.5124C15.7209 -3.47387 16.0016 -3.69956 16.2438 -3.98029C17.8246 -5.90732 19.9065 -7.36067 22.2604 -8.18029C28.8273 -10.4096 33.7759 -1.45368 34.1613 -0.98029C34.3264 -0.771116 34.4695 -0.639006 34.7448 -0.754602C36.842 -1.65185 39.0604 -1.78396 41.2842 -1.58029C43.0842 -1.42616 45.198 -1.07387 45.8695 0.720628C47.4879 5.04723 42.5668 10.4968 39.0769 11.1959Z" fill="black"/>
<path d="M29.758 27.2032C30.1543 27.6821 30.2589 28.3041 30.8699 28.5793C31.1176 28.6894 31.002 29.0032 30.7103 29.0802C30.5277 29.1198 30.3399 29.1291 30.1543 29.1077C28.9213 29.0197 27.6938 28.9206 26.4552 29.1353C26.0314 29.2068 25.5745 29.1188 25.1341 29.0967C24.8974 29.0857 24.7213 28.9646 24.6938 28.7224C24.6662 28.4802 24.8864 28.3701 25.0516 28.3646C25.8057 28.3426 26.2075 27.8032 26.6369 27.3188C27.0112 26.8784 27.4626 26.8013 28.002 26.7958C28.613 26.7848 29.2516 26.5756 29.7635 27.2032H29.758ZM28.9103 30.5224C28.3598 30.5885 27.8369 30.7096 27.369 30.1811C27.8864 29.9169 28.3543 29.9499 28.8002 29.9169C28.9653 29.9059 29.18 30.0215 29.2185 30.2307C29.246 30.3903 29.0919 30.4564 28.9103 30.5224Z" fill="black"/>
<path d="M29.7303 19.2215C29.945 20.1187 30.1376 20.9609 30.3468 21.7921C30.622 22.871 30.4624 23.3554 29.4826 23.7682C28.3817 24.2196 26.978 24.1536 26.2019 22.915C26.0808 22.7224 26.0037 22.5517 26.0367 22.3315C26.0753 22.1554 26.1413 22.0178 26.334 21.9848C26.5376 21.9517 26.6092 22.0673 26.6863 22.238C27.2037 23.3224 27.9909 23.6251 29.0918 23.1793C29.6477 22.9591 29.8239 22.5297 29.6422 21.9903C29.251 20.7942 29.0016 19.5564 28.8991 18.3022C28.8165 17.4875 28.6679 16.6398 29.2129 15.9187H29.4331L29.7303 19.2215Z" fill="black"/>
<path d="M27.3292 22.5403C27.0155 22.0945 27.3292 21.9513 27.632 21.8633C27.8522 21.7972 28.0833 21.9183 28.0668 22.1715C28.0393 22.6119 27.7311 22.6559 27.3292 22.5403Z" fill="black"/>
<path d="M32.1043 17.5977C32.8254 17.6142 33.5024 17.6527 34.1795 17.7353C34.3446 17.7518 34.4492 17.9169 34.4547 18.0986C34.4547 18.2857 34.3556 18.4123 34.1905 18.4839C33.5795 18.7536 32.9795 18.9408 32.3355 18.4949C31.9777 18.2527 31.8456 18.0215 32.1043 17.5977ZM23.5997 17.7463C23.941 17.9279 23.8859 18.1316 23.7153 18.3408C23.3575 18.7811 22.163 18.8912 21.7116 18.5334C21.4529 18.3243 21.3098 18.06 21.4694 17.7408C21.6345 17.4105 21.9208 17.4655 22.185 17.6032C22.6254 17.8233 23.0878 17.7683 23.5997 17.7463Z" fill="black"/>
<path d="M21.7332 13.8654C22.2561 13.2819 22.9332 12.9737 23.4726 12.4893C23.7258 12.2636 24.0011 12.3296 24.2102 12.5773C24.4194 12.814 24.6121 13.0342 24.3589 13.3755C23.7592 14.1296 22.9365 14.6748 22.0084 14.9333C21.2157 15.192 20.368 15.2746 19.5423 15.4287C19.2946 15.4782 18.9809 15.6104 18.9093 15.2305C18.8433 14.8672 19.0855 14.6801 19.4323 14.614C20.2139 14.4599 20.9956 14.3278 21.7332 13.8654ZM34.5644 13.7608C35.1864 13.8709 35.5552 14.3663 36.0946 14.5425C36.3038 14.6085 36.557 14.8012 36.4579 15.0654C36.3423 15.3847 36.0176 15.3021 35.7864 15.2305C35.0551 14.998 34.3351 14.7317 33.6286 14.4324C32.924 14.1241 32.2469 13.7498 31.5699 13.3865C31.2396 13.2104 30.9313 12.9571 31.1625 12.5498C31.3937 12.148 31.768 12.0269 32.1699 12.3461C32.8855 12.9241 33.7442 13.2544 34.5699 13.7608H34.5644Z" fill="black"/>
</g>
</g>
<defs>
<clipPath id="clip0_43_2925">
<path d="M0 24C0 10.7452 10.7452 0 24 0C37.2548 0 48 10.7452 48 24C48 37.2548 37.2548 48 24 48C10.7452 48 0 37.2548 0 24Z" fill="white"/>
</clipPath>
</defs>
</svg>
