<svg width="48" height="48" viewBox="0 0 48 48" fill="none" xmlns="http://www.w3.org/2000/svg">
<g clip-path="url(#clip0_43_2969)">
<mask id="mask0_43_2969" style="mask-type:luminance" maskUnits="userSpaceOnUse" x="0" y="0" width="48" height="48">
<path d="M48 0H0V48H48V0Z" fill="white"/>
</mask>
<g mask="url(#mask0_43_2969)">
<path d="M35.7234 42.8635C30.2629 59.2121 15.6977 64.2543 7.99682 43.9534C6.93444 41.1626 9.70325 40.1277 11.6409 38.8947C12.9675 38.0525 13.6665 37.3259 13.584 36.5718C13.1987 33.0268 11.5528 23.1516 11.5528 23.1516L11.3877 22.8323C11.3877 22.8323 11.4262 22.7442 11.2665 22.8984C11.1014 23.0635 10.7216 24.7809 9.22985 24.7809C7.88123 24.7809 6.52159 24.1809 5.87205 20.0305C5.62435 18.5277 5.75646 14.5864 7.42985 13.8708C8.11792 13.5791 8.75095 13.4745 9.36747 13.8268C9.98948 14.1791 8.65187 12.6158 15.5326 6.89102C20.0023 3.15891 27.0647 2.61396 29.9161 3.24699C32.7675 3.88001 35.6133 5.27268 36.8739 8.22864C38.4042 11.8066 35.4482 14.5204 36.1032 22.6782C35.9821 25.6286 36.1473 32.102 28.0335 34.2708C26.4922 34.6837 26.9711 36.9351 29.2831 37.4855C32.9711 38.6415 35.7234 41.4653 35.7234 42.8745" fill="white"/>
<path fill-rule="evenodd" clip-rule="evenodd" d="M35.7238 17.4602L35.7293 17.3831C35.9549 15.3795 36.1806 13.4364 37.221 11.6914C37.5788 11.9336 37.5348 12.2419 37.4247 12.5281C36.3293 15.3465 36.4338 18.2749 36.5329 21.2033L36.5549 21.974C36.6705 25.629 35.7568 28.9538 33.3238 31.7446C32.476 32.7134 31.3531 33.385 30.2137 33.963C29.0357 34.5685 28.788 35.0694 29.1568 36.363L29.2008 36.5061C29.2779 36.7208 29.3549 36.9409 29.1458 37.1556C28.8981 37.4088 28.6228 37.3373 28.3311 37.2547L28.2981 37.2492C25.5688 36.485 23.0097 35.2092 20.7568 33.4896C20.4265 33.2474 20.1623 32.9226 19.9036 32.6033L19.8871 32.5813C19.7494 32.4162 19.7219 32.152 19.9146 32.0088C20.0962 31.8712 20.2338 31.9813 20.3935 32.1079L20.4485 32.1575C21.6505 33.1327 23.1093 33.7388 24.6485 33.9024C25.3861 33.9795 26.1127 33.952 26.8504 33.9244C27.2577 33.9079 27.665 33.8914 28.0779 33.8969C28.6394 33.8969 29.1072 33.6382 29.5476 33.3905L29.7017 33.3024C31.232 32.4492 32.6907 31.4969 33.676 29.9611C34.5623 28.585 35.1017 27.0877 35.4155 25.5079C35.8118 23.5208 35.7788 21.5061 35.7458 19.4639C35.7293 18.8033 35.7183 18.1318 35.7183 17.4602H35.7238ZM8.01366 13.3098C9.21917 13.2162 9.88522 13.9263 10.4522 14.7575C11.1242 15.773 11.5467 16.933 11.6852 18.1428C11.7127 18.3465 11.7403 18.5611 11.6192 18.7648C11.3715 18.7978 11.3494 18.5997 11.3439 18.4565C11.3164 17.3171 10.81 16.3263 10.3036 15.3685C9.94027 14.6804 9.41183 14.0143 8.57513 13.8492C7.62834 13.6565 6.75862 14.5098 6.32926 15.6217C5.5311 17.6914 5.66871 19.7281 6.40632 21.7318C6.72559 22.607 7.12743 23.4987 7.9366 24.1098C8.75128 24.7318 9.7366 24.6217 10.3366 23.796L10.4467 23.6584C10.5568 23.5153 10.6669 23.3776 10.7219 23.218C10.8375 22.8987 11.0192 22.6015 11.3439 22.6455C11.7183 22.7006 11.7843 23.1024 11.8228 23.4162C12.1643 26.2998 12.5681 29.1757 13.0338 32.0419L13.3586 34.1776C13.5017 35.1189 13.6669 36.4731 13.5568 37.0455C13.5497 37.0857 13.5442 37.1261 13.5403 37.1666C13.5183 37.3208 13.5072 37.4419 13.3091 37.4694C13.0394 37.5134 12.9238 37.3593 12.8852 37.1171C12.7586 36.1813 12.7201 35.818 12.665 34.3868C12.6155 32.9997 12.3568 31.6345 12.0926 30.2639L11.8173 28.7776C11.5311 27.0822 11.2504 25.3648 11.2228 23.4382L11.1127 23.6033C10.6944 24.2254 10.3586 24.7318 9.76412 24.9244C9.32282 25.0935 8.8392 25.118 8.38308 24.9943C7.92697 24.8706 7.52195 24.6052 7.22651 24.2364C6.45084 23.3603 5.90596 22.3046 5.64119 21.1648C5.1788 19.2932 5.09623 17.4712 5.69073 15.6272C5.97697 14.7409 6.99532 13.1666 8.01366 13.3153V13.3098ZM9.91825 20.3281C10.1605 20.5043 10.3806 20.6584 10.5788 20.0309C10.5183 17.7079 9.76963 16.2217 8.60816 16.1611C9.22467 16.9648 9.81917 17.7465 9.87421 18.8309C9.64516 18.7139 9.44421 18.5486 9.28522 18.3465C9.17513 18.2254 9.06504 18.1042 8.92743 18.0162L8.76229 17.8841C8.49807 17.6859 8.22834 17.4767 7.78247 17.6364C7.99165 17.9556 8.27788 18.1868 8.56963 18.407C8.8999 18.6657 9.23018 18.9189 9.42834 19.3153C8.84486 19.7391 8.59165 20.2896 8.8944 20.9611C9.15862 21.5391 9.54944 22.018 10.3201 22.051C10.2871 21.7043 10.0614 21.451 9.83568 21.2033C9.56045 20.9061 9.30174 20.6198 9.42284 20.1795C9.59899 20.0969 9.76412 20.218 9.91825 20.3281Z" fill="black"/>
<path d="M57.5992 72.3021L-14.1641 72.1204C-14.1641 72.1204 -12.331 60.5773 -8.86865 54.0159C-4.8503 46.381 0.687312 39.3736 13.1497 36.3847C13.6451 36.2691 18.4396 38.8232 20.2176 39.7039C21.0433 40.1113 24.4616 39.8636 24.4616 39.8636L30.5607 36.8415C30.5607 36.8415 37.7387 39.1535 41.3827 41.2067C46.0176 43.8103 51.2469 51.5003 53.658 57.5003C56.2231 63.8746 57.5992 72.3076 57.5992 72.3076V72.3021Z" fill="white"/>
<path fill-rule="evenodd" clip-rule="evenodd" d="M56.2897 68.0365C56.5925 69.4567 56.8952 70.8824 57.253 72.3026C57.5062 72.3026 57.6989 72.3026 57.875 72.253C57.5895 71.1541 57.3744 70.0381 57.231 68.9117C57.1209 68.1906 57.0108 67.4695 56.8677 66.7649C56.5264 65.0915 56.1411 63.4347 55.6567 61.8108C55.1062 59.9613 54.4787 58.1227 53.7136 56.3448C52.9637 54.487 52.0769 52.6876 51.0603 50.9613C49.6223 48.6206 47.9771 46.4136 46.1448 44.3668C44.075 42.0604 41.4438 40.5961 38.7301 39.3356C36.8549 38.4184 34.9181 37.633 32.9337 36.9851C31.5246 36.5558 30.0714 36.3026 28.5851 36.3136C28.2548 36.3136 28.0732 36.5117 28.2824 36.7319C28.7337 37.2053 28.4145 37.3815 28.1007 37.5521C27.9329 37.6356 27.7694 37.7274 27.6108 37.8273C27.1088 38.1439 26.5824 38.42 26.0365 38.653C25.7778 38.7521 25.5301 38.8842 25.2824 39.0218C24.809 39.286 24.3301 39.5503 23.7796 39.5393C23.3943 39.5337 23.0145 39.5393 22.6347 39.5558L21.8255 39.5723C21.4292 39.5723 21.0383 39.5062 20.6695 39.3631C19.9514 39.0756 19.259 38.7276 18.5998 38.3227C18.1154 38.0475 17.631 37.7668 17.1246 37.5301L16.486 37.2383C15.4326 36.8045 14.4271 36.2622 13.486 35.62C13.1998 35.4108 12.9246 35.5209 12.6934 35.664C11.8952 36.1594 11.02 36.4677 10.1448 36.776C9.37411 37.0512 8.60347 37.3209 7.88787 37.7117C6.38512 38.5374 4.82732 39.275 3.27503 40.0126C0.385119 41.3723 -1.93782 43.486 -4.03506 45.8695C-5.19103 47.1796 -6.2369 48.5833 -7.17268 50.064C-9.09997 53.1531 -10.6522 56.4608 -11.7965 59.9172L-11.8626 60.1099C-12.2884 61.2986 -12.6558 62.5074 -12.9635 63.7319C-13.0516 64.1282 -13.1562 64.5191 -13.2552 64.9099C-13.4204 65.5594 -13.5855 66.2035 -13.7176 66.8585C-14.0644 68.6695 -14.3562 70.4915 -14.6094 72.3081C-14.2626 72.3081 -13.9708 72.3081 -13.6681 72.2475C-13.5965 71.7851 -13.536 71.3337 -13.4754 70.8879C-13.3543 70.0126 -13.2387 69.1539 -13.0571 68.3117L-12.914 67.6182C-12.5617 65.9338 -12.2149 64.2493 -11.6699 62.609C-11.6149 62.4659 -11.5708 62.3172 -11.5213 62.1686C-10.9984 60.5943 -10.4754 59.0145 -9.8369 57.4842C-9.19308 55.9564 -8.47478 54.461 -7.6846 53.0035C-6.11372 50.033 -4.1308 47.2996 -1.7947 44.8842C-0.0607529 43.1007 1.9209 41.6365 4.16127 40.5631C4.28787 40.5081 4.41998 40.431 4.54659 40.3594C5.05301 40.0787 5.59246 39.776 6.19796 40.0126C7.43649 40.486 8.67503 40.9925 9.8475 41.609C11.4328 42.4347 12.9906 43.3099 14.5539 44.1851C15.0383 44.4604 15.5227 44.7356 16.0071 44.9998L16.0347 45.0163C17.1246 45.6218 17.1246 45.6218 17.8181 44.598L17.8622 44.5815L17.8897 44.5704C18.4071 44.7906 18.8695 45.1209 19.3319 45.4402C19.5961 45.6218 19.8548 45.8035 20.1301 45.9686C21.253 46.6567 21.3576 46.9319 20.9337 48.0934C20.686 48.7704 20.4493 49.453 20.2071 50.1301C19.8879 51.0328 19.5686 51.9356 19.2383 52.8273C18.3548 55.1584 17.6194 57.543 17.0365 59.9668C16.7503 61.1888 16.9925 61.6292 18.1209 62.2237C18.3851 62.3668 18.6548 62.4989 18.9246 62.6365L19.7943 63.0879C20.086 63.242 20.2512 63.4732 20.2181 63.831C20.0145 65.9998 19.9429 68.1796 19.9319 70.3594C19.9319 70.7007 19.8934 71.042 19.8548 71.3833C19.8163 71.6915 19.7833 71.9998 19.7723 72.3026H20.5594C20.8787 69.2971 20.9778 66.286 21.0769 63.264C21.1264 61.7503 21.242 60.2365 21.3521 58.7227C21.4237 57.8585 21.4842 56.9888 21.5392 56.1246C21.5833 55.464 21.5943 54.798 21.5998 54.1319C21.6163 53.1301 21.6328 52.1338 21.7484 51.1374C21.8475 50.3503 21.9191 49.5576 21.9961 48.7429L22.1062 47.6145C23.042 47.9998 23.7796 47.631 24.4952 47.1741C24.8915 47.5044 25.0567 47.9448 25.2108 48.3741L25.3484 48.7209C26.097 50.4934 26.587 52.3539 27.0548 54.22C27.3081 55.2108 27.5503 56.2016 27.7264 57.2145L27.798 57.6438V57.6659C28.1282 59.587 28.4585 61.5081 28.6897 63.4457C28.8934 65.2071 29.009 66.9851 29.1301 68.7576L29.2567 70.7117C29.2732 70.8989 29.2732 71.086 29.2787 71.2787C29.2842 71.587 29.2952 71.9062 29.3392 72.242C29.609 72.3026 29.8016 72.3026 30.0163 72.242C30.1704 68.6255 29.7411 65.1191 29.2897 61.6126L29.1961 60.9191C29.1411 60.5227 29.086 60.1319 29.042 59.7356C28.9199 58.6442 28.7398 57.5601 28.5026 56.4879C28.3925 56.0035 28.2548 55.5191 28.1117 55.0347C27.9466 54.4897 27.7925 53.9448 27.6769 53.3833C27.4732 52.3484 27.1264 51.3631 26.7796 50.3778C26.3831 49.1846 25.8609 48.0368 25.2218 46.9539C25.1227 46.7888 25.0237 46.5631 25.2438 46.4585C25.7558 46.2383 26.1576 45.864 26.5649 45.4897C26.9392 45.1484 27.3136 44.8016 27.7759 44.5594L27.875 44.8071C27.9466 44.9723 28.0126 45.1374 28.0952 45.2805C28.5686 46.1117 28.8108 46.1613 29.5594 45.5723C30.0108 45.2255 30.4842 44.9117 30.9576 44.598C31.4805 44.2567 32.0035 43.9154 32.4879 43.5246C33.1484 42.9906 33.8695 42.5393 34.5961 42.0934C35.4141 41.6161 36.1944 41.0769 36.9301 40.4805C38.2512 39.3521 40.3429 40.8328 42.864 42.6108L42.897 42.6383C45.286 44.3227 47.0805 46.6016 48.7319 48.9796C49.8793 50.6759 50.9057 52.4509 51.8035 54.2915C52.7227 56.1191 53.5099 58.0071 54.1484 59.9448C55.0451 62.5907 55.7624 65.2941 56.2952 68.0365H56.2897ZM16.987 43.9815C16.8659 44.1961 16.7558 44.3227 16.5026 44.2182C15.253 43.6182 14.0585 42.9521 12.8695 42.2805C10.9594 41.2016 9.07136 40.1393 7.01815 39.4402C7.01815 39.1649 7.15026 39.0989 7.26585 39.0438L7.28787 39.0383C8.00897 38.7081 8.70806 38.3282 9.38512 37.9099C9.76015 37.6649 10.1977 37.5331 10.6457 37.5301C11.7466 37.5301 12.8475 37.5136 13.8383 36.9246C14.1026 36.776 14.3668 36.853 14.6365 37.0071L15.5062 37.5136C16.7172 38.2292 17.9393 38.9337 19.2218 39.5172C19.4695 39.6273 19.7172 39.7704 19.8603 40.0402C18.739 41.2245 17.7734 42.5471 16.987 43.976V43.9815ZM31.0622 43.5631C31.9429 42.8035 32.9337 42.187 33.9136 41.5704C34.7943 41.02 35.675 40.4695 36.4677 39.82C36.3906 39.5888 36.2585 39.4897 36.1264 39.4016C36.1023 39.3837 36.0784 39.3653 36.0548 39.3466C35.1356 38.642 34.0732 38.2567 32.9998 37.8714C32.642 37.7393 32.2842 37.6126 31.9319 37.4695C31.4255 37.2659 30.809 37.0457 30.1759 37.398L29.4108 37.8273C28.3281 38.4833 27.1919 39.0467 26.0145 39.5117C25.6512 39.6438 25.6071 39.82 25.8383 40.1393C26.0585 40.442 26.2622 40.7503 26.4659 41.064C26.7136 41.4273 26.9558 41.7906 27.2145 42.1429C27.6659 42.7484 28.1337 43.3539 28.6016 43.9429L29.1961 44.7026C29.8292 44.3282 30.4071 43.9815 31.0622 43.5686V43.5631ZM21.0493 40.7062C21.3521 40.475 21.6824 40.3044 22.0842 40.3594C23.4273 40.1723 24.5062 40.4695 25.4695 41.2457C26.1301 41.7796 26.1686 42.1594 25.6567 42.842C25.5356 43.0071 25.4365 43.1833 25.3374 43.3594C25.1723 43.6677 25.0071 43.9649 24.7209 44.1851C23.7466 43.6567 22.7778 43.5246 21.787 44.1026C21.4897 44.2787 21.2695 44.1851 21.0438 43.9539C20.7432 43.6491 20.4385 43.3481 20.1301 43.0512L19.7007 42.6328C19.3759 42.3191 19.2769 42.0549 19.7558 41.7521C20.0475 41.5594 20.3062 41.3337 20.5815 41.1026C20.7301 40.9704 20.8897 40.8328 21.0493 40.7062ZM19.7117 62.1356C19.8769 62.2292 20.0585 62.3227 20.3282 62.3227L20.4548 59.1466C20.5649 56.3723 20.675 53.6035 20.8842 50.8347C20.6255 51.3906 20.4218 51.9631 20.2237 52.5301L19.9264 53.3448C19.0402 55.6732 18.3576 58.0677 17.7796 60.4842C17.6915 60.842 17.7026 61.1448 18.0548 61.3264C18.4897 61.5466 18.9246 61.7668 19.4585 62.02C19.5466 62.0475 19.6236 62.0915 19.7117 62.1356ZM22.9319 44.4493C23.2329 44.3851 23.5464 44.4159 23.8292 44.5374C24.5448 45.2365 24.6383 45.787 24.1925 46.2989C23.5815 47.0145 22.6457 47.2292 22.0237 46.7943C21.5503 46.4585 21.4732 45.9466 21.6218 45.4732C21.809 44.8677 22.3374 44.5649 22.9319 44.4493ZM20.6475 45.4126C21.2145 45.3411 20.9393 44.9337 20.8016 44.8016C20.3062 44.3172 19.7943 43.8604 19.2383 43.3704L18.5998 42.8035C18.5668 43.0677 18.4402 43.2438 18.3246 43.42C18.2464 43.5234 18.1782 43.634 18.1209 43.7503L18.1319 43.7613C18.9576 44.3117 19.7668 44.8402 20.6475 45.4126ZM25.8493 44.0365L26.0695 43.7723L26.2181 43.5191C26.3613 43.2714 26.4824 43.0622 26.6805 42.9136C27.3686 43.5906 27.3686 43.8383 26.7081 44.3558C26.642 44.4108 26.5759 44.4549 26.5044 44.5044C26.3503 44.62 26.1906 44.7356 26.0585 44.8787C25.8604 45.0824 25.6677 45.275 25.3594 45.3851C25.0677 45.1429 25.1007 44.9007 25.3429 44.631C25.5191 44.4383 25.6842 44.2402 25.8493 44.0365Z" fill="black"/>
<path d="M12.2865 28.6734C9.17646 29.6862 4.00214 26.4715 2.34526 24.8202C-0.186848 22.2881 -0.858408 17.3229 -0.0382248 13.5633C0.776454 9.80366 6.09388 -9.31928 22.4921 -10.6569C32.3232 -11.4716 37.2994 -5.22937 39.5232 -1.97066C42.9911 3.08255 45.0113 10.3156 42.9911 15.4954C41.9342 18.2092 38.0535 22.9706 37.1232 22.4587C36.193 21.9468 35.8572 15.9523 36.2976 12.3248C37.0682 5.92843 26.5654 1.52476 26.5654 1.52476C26.5654 1.52476 23.3508 4.29356 18.4517 9.19265C13.5526 14.0917 11.4829 18.1541 11.3122 21.3523C11.1251 24.8202 12.2865 28.6679 12.2865 28.6679V28.6734Z" fill="white"/>
<path fill-rule="evenodd" clip-rule="evenodd" d="M11.7196 22.9373C11.6646 21.963 11.6095 20.9777 11.8187 19.9649C11.9484 18.5652 12.417 17.2181 13.1838 16.0401C14.6701 13.5575 16.5967 11.3997 18.6224 9.35752C20.1306 7.83275 21.6114 6.51716 23.1141 5.18505C24.182 4.23826 25.2554 3.28046 26.3618 2.2401C26.8187 1.79973 31.6682 4.49697 33.4407 6.27496C34.5637 7.4034 35.6646 8.71899 35.9343 9.93551C36.1875 11.1025 36.0829 12.2915 35.9783 13.4805C35.9453 13.8823 35.9068 14.2841 35.8903 14.686C35.8682 15.0603 35.8077 15.4346 35.7472 15.8089C35.6371 16.4915 35.527 17.174 35.6591 17.8786L35.9068 19.1337C36.1325 20.2456 36.3637 21.3575 36.4132 22.4915C36.4352 22.9594 36.738 23.0529 37.1673 22.8988C38.1912 22.5245 38.9288 21.7869 39.6719 21.0383C41.0481 19.6621 41.9508 17.9722 42.8426 16.2823C43.6022 14.8401 44.1637 13.3704 44.1306 11.6805C44.1196 11.2566 44.1196 10.8272 44.1196 10.3979C44.1196 9.89697 44.1141 9.39055 44.0976 8.88964C44.0481 7.08964 43.4976 5.38321 42.9306 3.71532C42.2701 1.75019 41.1967 -0.0333004 40.0187 -1.74523C38.2352 -4.33789 36.1655 -6.64431 33.4683 -8.34523C30.9031 -9.96358 28.0462 -10.6902 25.0572 -10.9269C22.9545 -11.092 20.9178 -10.6957 18.8921 -10.1783C17.2958 -9.77092 15.8095 -9.07734 14.3673 -8.35624C13.1853 -7.74609 12.0787 -6.99973 11.0701 -6.13238C8.5655 -4.04064 6.25907 -1.81128 4.51962 0.985047C3.26632 3.03216 2.16431 5.16812 1.22238 7.37587C0.512284 9.01074 0.121458 10.7667 -0.263863 12.5227L-0.373955 13.0181C-1.18016 16.4837 -0.745793 20.1222 0.853569 23.3006C2.06458 25.7722 4.17283 27.3906 6.74898 28.3098C8.25724 28.8438 9.79302 29.3557 11.4444 29.3557C12.2536 29.3557 12.3912 29.3392 12.3802 28.5025C12.3747 27.8199 12.2205 27.1539 12.0719 26.4878C11.9068 25.7887 11.7527 25.0896 11.7582 24.3575C11.7637 23.8841 11.7361 23.4052 11.7141 22.9263L11.7196 22.9373ZM36.6554 12.4456C36.6994 11.2566 36.6004 10.0731 36.149 8.95019C35.1692 6.39055 32.9013 4.73367 31.1398 3.6823C30.4973 3.31359 29.8338 2.98275 29.1527 2.69147C28.5802 2.43275 28.0793 2.20707 27.6774 1.93734C27.116 1.56303 27.0719 1.45844 27.5949 0.979544C27.6664 0.924498 27.7325 0.852939 27.7875 0.775874C28.3765 -0.154401 29.5545 -0.985594 30.5178 -1.39844C31.0166 -1.60357 31.4685 -1.90794 31.846 -2.29306C32.2236 -2.67819 32.5189 -3.13604 32.7141 -3.63881C32.7692 -3.77642 32.8077 -3.90853 32.604 -4.12871C31.8444 -2.97275 30.9306 -1.99293 29.4554 -1.45348L30.0059 -2.38926C30.5728 -3.31403 31.1178 -4.20578 31.4205 -5.30669C30.8536 -5.15807 30.6884 -4.76174 30.5508 -4.42046L30.4572 -4.20027C29.4952 -2.38139 28.318 -0.684802 26.9508 0.852938C25.9545 1.99239 24.9031 2.85661 23.8407 3.73184C23.0481 4.38138 22.2444 5.03642 21.4517 5.82358C20.8462 6.41808 20.2297 6.98505 19.6077 7.55202C18.4793 8.58688 17.3508 9.62175 16.36 10.7832C14.9838 12.3961 13.6517 14.0529 12.4297 15.7924C11.593 16.9814 11.3453 18.4346 11.1527 19.8933C10.8224 22.4254 11.2462 24.886 11.6866 27.352C11.8793 28.4144 11.6976 28.6566 10.6297 28.6731C9.32513 28.6896 8.15265 28.2217 7.01871 27.6603C5.49532 26.9407 4.1079 25.9629 2.91779 24.7704C1.35449 23.163 0.534302 21.2419 0.121458 19.0841C-0.230835 17.2181 0.0609082 15.3961 0.347147 13.5795L0.468247 12.8089C0.743477 10.9924 1.40403 9.30248 2.05357 7.61257C2.25724 7.08413 2.46091 6.55569 2.65357 6.01624C3.68843 3.15386 5.38384 0.709819 7.31595 -1.58009C9.73797 -4.47 12.5563 -6.89752 16.0297 -8.49385C19.0572 -9.88651 22.2059 -10.6902 25.5416 -10.3819C26.8627 -10.2608 28.1728 -9.97458 29.4279 -9.53972C31.1485 -8.94289 32.7715 -8.09522 34.2444 -7.02413C36.0257 -5.69086 37.594 -4.09466 38.8958 -2.29018C40.349 -0.363576 41.4664 1.75569 42.3031 4.00707C42.928 5.67032 43.3225 7.41122 43.4756 9.18138C43.5582 10.1172 43.5141 11.0419 43.4701 11.9667L43.4316 12.8199C43.3985 13.8658 42.9637 14.7906 42.5343 15.7098L42.3802 16.0566C41.3388 18.2736 39.8333 20.2409 37.9655 21.8254C37.4481 22.2823 37.0407 22.1832 36.9031 21.5117C36.7848 20.8973 36.6912 20.2785 36.6224 19.6566L36.4903 18.6658C36.2811 17.2621 36.4022 15.8639 36.5233 14.4713C36.5783 13.7942 36.6389 13.1227 36.6609 12.4456H36.6554Z" fill="black"/>
<path d="M7.37637 19.0067C7.75619 17.0635 8.18554 15.203 9.2094 13.5406C9.80444 12.504 10.5502 11.5616 11.4222 10.7443C11.6094 10.5791 11.78 10.2984 12.2479 10.403C8.55986 14.5534 6.53417 19.0782 8.81307 24.6158C7.80022 24.1645 7.20022 21.8085 7.38187 19.0067H7.37637ZM14.8186 10.7553L12.5892 13.7718C12.6993 11.8067 20.3672 2.7461 22.3213 2.56445C19.5129 4.99625 16.9952 7.7448 14.8186 10.7553ZM41.2296 13.8268C41.0204 14.4048 41.092 15.0378 40.6571 15.5002C40.3984 14.8397 40.6901 14.2507 40.9048 13.6782C40.9819 13.458 41.1635 13.5791 41.2351 13.8268H41.2296ZM42.1213 11.669C42.3966 11.3718 42.5287 11.4984 42.5342 11.7791C42.5452 12.236 42.4241 12.6599 41.9287 13.1553C42.0002 12.5498 42.0443 12.1314 42.1213 11.669ZM41.0259 11.8782C40.9709 12.1479 40.9709 12.4011 40.6186 12.4617C40.3709 11.9167 40.6626 11.5204 40.9158 11.058C41.2736 11.3112 41.092 11.5755 41.0259 11.8782Z" fill="black"/>
<path d="M23.8957 28.139C24.3195 27.3023 23.5654 27.0381 23.1801 26.5537C22.5195 28.106 22.6737 29.6308 23.5159 30.1317C23.5819 29.4932 23.4993 28.8216 23.9012 28.139H23.8957Z" fill="white"/>
<path fill-rule="evenodd" clip-rule="evenodd" d="M24.4293 29.8343V29.3003C24.4843 29.1902 24.5119 29.0691 24.5339 28.959C24.5724 28.7719 24.6054 28.6012 24.7706 28.4746C25.0183 28.4691 25.2275 28.5792 25.4366 28.6948C25.6183 28.7829 25.7999 28.882 26.0036 28.904H26.0587C26.2238 28.9315 26.4054 28.9535 26.488 28.7388C26.5761 28.5132 26.499 28.315 26.2788 28.2159C25.244 27.7425 24.5614 26.9003 23.8843 26.0361C23.422 25.4361 22.7394 25.5792 22.321 26.2508C21.7045 27.2416 21.8587 28.3205 22.0018 29.3333L22.0073 29.3884C22.1174 30.137 22.5192 30.9132 23.3779 31.2214C24.0054 31.4416 24.3908 31.2104 24.4238 30.5498L24.4293 29.8343ZM23.5155 26.8893C23.8733 27.2086 24.2091 27.5113 23.9009 28.1388C23.5981 28.6563 23.5706 29.1682 23.5486 29.6636C23.5419 29.8199 23.5309 29.9759 23.5155 30.1315C22.6733 29.6306 22.5137 28.1058 23.1798 26.5535C23.2788 26.6746 23.3999 26.7847 23.5155 26.8893Z" fill="black"/>
<path d="M26.0039 22.9538C26.3012 22.4749 27.2479 22.2823 27.7709 22.552C28.1342 22.7391 28.4865 22.9703 28.8718 22.6456C29.2296 22.3373 29.125 21.974 28.9544 21.6162C28.8663 21.4401 28.9103 21.3024 29.0755 21.2034C29.2406 21.0988 29.3782 21.1428 29.5268 21.2474C29.7122 21.3762 29.8537 21.5586 29.9324 21.7701C30.0112 21.9817 30.0233 22.2122 29.9672 22.4309C29.8791 22.8327 29.758 23.3116 29.2681 23.4768C29.0479 23.5538 28.7837 23.6694 28.5911 23.6089C27.7434 23.3501 26.7305 23.796 26.0039 22.9483V22.9538Z" fill="black"/>
<path d="M21.4186 17.6471C21.6939 16.9866 21.914 16.0288 22.7452 16.4086C23.8847 16.926 23.5104 18.0985 23.2792 19.0177C23.1911 19.3645 22.481 19.893 22.2718 19.8049C21.3746 19.4306 21.215 18.6104 21.4186 17.6471ZM33.9085 19.6728C33.4351 20.0856 32.9728 20.0911 32.6865 19.5902C32.1911 18.7095 32.2131 17.7847 32.8682 16.9921C33.0058 16.8269 33.6278 16.7939 33.7654 16.937C34.5361 17.7627 34.5691 18.6875 33.9085 19.6728Z" fill="black"/>
<path d="M23.0852 14.0911C21.9072 13.7939 21.4668 13.992 20.8063 15.0599C20.6742 15.2801 20.6191 15.6874 20.2228 15.4452C19.9146 15.2581 19.9311 14.9608 20.0797 14.6416C20.2608 14.2085 20.5468 13.8272 20.912 13.5322C21.2771 13.2372 21.7099 13.0377 22.1714 12.9517C22.6366 12.8804 23.1112 12.992 23.496 13.2628C23.8808 13.5337 24.1458 13.943 24.2357 14.4049C24.2852 14.6966 24.2412 14.9553 23.9714 15.1535C23.3549 15.0819 23.5311 14.3718 23.0907 14.1021L23.0852 14.0911ZM32.1568 13.97C32.9274 13.6287 33.643 13.2874 34.4246 13.8654C34.7054 14.0691 34.9201 14.3498 35.0467 14.6746C35.1568 14.9498 35.1733 15.2636 34.898 15.4342C34.5843 15.6269 34.4522 15.3186 34.2925 15.126C33.7201 14.4214 33.2797 14.3718 32.509 14.8728C32.2889 15.0159 32.1347 15.3131 31.7659 15.2581C31.4522 14.7296 31.7604 14.3608 32.1512 13.97H32.1568Z" fill="black"/>
</g>
</g>
<defs>
<clipPath id="clip0_43_2969">
<path d="M0 24C0 10.7452 10.7452 0 24 0C37.2548 0 48 10.7452 48 24C48 37.2548 37.2548 48 24 48C10.7452 48 0 37.2548 0 24Z" fill="white"/>
</clipPath>
</defs>
</svg>
