<svg width="32" height="32" viewBox="0 0 32 32" fill="none" xmlns="http://www.w3.org/2000/svg">
<g clip-path="url(#clip0_43_2847)">
<mask id="mask0_43_2847" style="mask-type:luminance" maskUnits="userSpaceOnUse" x="0" y="0" width="32" height="32">
<path d="M32 0H0V32H32V0Z" fill="white"/>
</mask>
<g mask="url(#mask0_43_2847)">
<path d="M23.8169 28.576C20.1766 39.4751 10.4665 42.8365 5.33252 29.3026C4.62426 27.442 6.47013 26.7521 7.76188 25.9301C8.64628 25.3687 9.11234 24.8843 9.05729 24.3815C8.80041 22.0182 7.70316 15.4347 7.70316 15.4347L7.59307 15.2219C7.59307 15.2219 7.61876 15.1631 7.51233 15.2659C7.40224 15.376 7.14903 16.5209 6.15454 16.5209C5.25545 16.5209 4.34903 16.1209 3.916 13.354C3.75087 12.3521 3.83894 9.72462 4.95454 9.24755C5.41325 9.05306 5.83527 8.98333 6.24628 9.21819C6.66096 9.45306 5.76922 8.41086 10.3564 4.59434C13.3362 2.10627 18.0444 1.74297 19.9454 2.16498C21.8463 2.587 23.7435 3.51544 24.5839 5.48608C25.6041 7.87141 23.6334 9.68058 24.0701 15.1191C23.9894 17.0861 24.0995 21.4017 18.6903 22.8476C17.6628 23.1228 17.9821 24.6237 19.5233 24.9907C21.9821 25.7613 23.8169 27.6439 23.8169 28.5833" fill="white"/>
<path fill-rule="evenodd" clip-rule="evenodd" d="M23.8165 11.6398L23.8202 11.5884C23.9706 10.2527 24.1211 8.95725 24.8147 7.79395C25.0532 7.95541 25.0238 8.16092 24.9504 8.35174C24.2202 10.2306 24.2899 12.1829 24.3559 14.1352L24.3706 14.649C24.4477 17.0857 23.8385 19.3022 22.2165 21.1628C21.6514 21.8086 20.9027 22.2563 20.1431 22.6417C19.3578 23.0453 19.1926 23.3793 19.4385 24.2416L19.4679 24.3371C19.5192 24.4802 19.5706 24.627 19.4312 24.7701C19.266 24.9389 19.0825 24.8912 18.888 24.8361L18.866 24.8325C17.0465 24.323 15.3404 23.4725 13.8385 22.3261C13.6183 22.1646 13.4422 21.9481 13.2697 21.7352L13.2587 21.7206C13.1669 21.6105 13.1486 21.4343 13.277 21.3389C13.3981 21.2472 13.4899 21.3205 13.5963 21.405L13.633 21.438C14.4343 22.0882 15.4069 22.4922 16.433 22.6013C16.9247 22.6527 17.4091 22.6343 17.9009 22.616C18.1725 22.605 18.444 22.5939 18.7192 22.5976C19.0936 22.5976 19.4055 22.4251 19.6991 22.26L19.8018 22.2013C20.822 21.6325 21.7945 20.9976 22.4514 19.9738C23.0422 19.0563 23.4018 18.0582 23.611 17.005C23.8752 15.6802 23.8532 14.3371 23.8312 12.9756C23.8202 12.5352 23.8128 12.0875 23.8128 11.6398H23.8165ZM5.34309 8.87284C6.14676 8.81046 6.5908 9.28385 6.96878 9.83798C7.41676 10.515 7.69842 11.2883 7.7908 12.0949C7.80915 12.2306 7.8275 12.3738 7.74676 12.5095C7.58163 12.5316 7.56695 12.3994 7.56328 12.304C7.54493 11.5444 7.20731 10.8839 6.8697 10.2453C6.6275 9.78661 6.2752 9.34257 5.71741 9.23248C5.08621 9.10404 4.5064 9.67284 4.22016 10.4141C3.68805 11.7939 3.77979 13.1517 4.27153 14.4875C4.48438 15.071 4.75227 15.6655 5.29172 16.0728C5.83484 16.4875 6.49172 16.4141 6.89172 15.8637L6.96511 15.7719C7.03851 15.6765 7.1119 15.5848 7.1486 15.4783C7.22566 15.2655 7.34676 15.0673 7.56328 15.0967C7.81282 15.1334 7.85686 15.4013 7.88254 15.6105C8.1102 17.5329 8.37937 19.4501 8.68988 21.3609L8.9064 22.7848C9.00181 23.4123 9.1119 24.315 9.03851 24.6967C9.03377 24.7235 9.0301 24.7504 9.0275 24.7774C9.01282 24.8802 9.00548 24.9609 8.87337 24.9793C8.69355 25.0086 8.61649 24.9059 8.5908 24.7444C8.5064 24.1206 8.48071 23.8783 8.44401 22.9242C8.41098 21.9994 8.23851 21.0894 8.06236 20.1756L7.87887 19.1848C7.68805 18.0545 7.50089 16.9095 7.48254 15.6251L7.40915 15.7352C7.13025 16.1499 6.9064 16.4875 6.51007 16.616C6.21586 16.7287 5.89345 16.745 5.58937 16.6625C5.2853 16.5801 5.01529 16.4031 4.81832 16.1572C4.30121 15.5732 3.93796 14.8694 3.76144 14.1095C3.45319 12.8618 3.39814 11.6472 3.79447 10.4178C3.9853 9.82697 4.66419 8.77743 5.34309 8.87651V8.87284ZM6.61282 13.5517C6.77429 13.6692 6.92108 13.7719 7.05319 13.3536C7.01282 11.805 6.51374 10.8141 5.73942 10.7738C6.15043 11.3095 6.54676 11.8306 6.58346 12.5536C6.43076 12.4756 6.29679 12.3654 6.1908 12.2306C6.11741 12.1499 6.04401 12.0692 5.95227 12.0105L5.84218 11.9224C5.66603 11.7903 5.48621 11.6508 5.18897 11.7572C5.32842 11.9701 5.51924 12.1242 5.71374 12.271C5.93392 12.4435 6.1541 12.6123 6.28621 12.8765C5.89722 13.1591 5.72842 13.5261 5.93025 13.9738C6.1064 14.3591 6.36695 14.6783 6.88071 14.7004C6.85869 14.4692 6.70823 14.3004 6.55777 14.1352C6.37429 13.9371 6.20181 13.7462 6.28254 13.4527C6.39997 13.3976 6.51007 13.4783 6.61282 13.5517Z" fill="black"/>
<path d="M38.7954 48.5282L-9.2229 48.5612C-9.2229 48.5612 -6.54767 38.275 -5.83574 37.0933C-5.12015 35.9153 -2.25409 31.941 -2.28712 31.2658C-2.32015 30.5906 -2.23208 28.1906 -1.74767 27.2438C-1.26327 26.2897 0.278016 24.9942 0.879851 24.8952C1.48169 24.8034 3.51104 24.7117 4.7771 24.3924C6.04315 24.0768 7.2138 23.6842 8.50187 23.6842C8.71104 23.6842 8.50921 24.1429 8.50921 24.1429C8.50921 24.1429 8.57526 28.6309 14.5569 28.9135C19.0156 29.1227 20.4909 24.5979 20.4909 24.5979C20.4909 24.5979 19.511 23.7245 19.8083 23.7025C23.3165 23.4016 25.1551 24.1869 26.2193 24.3924C27.2028 24.5832 28.0248 24.5832 29.0083 25.2805C30.1349 26.0768 30.7147 27.886 31.9771 30.6566C33.4193 33.8346 39.1 43.475 38.7954 48.5502" fill="white"/>
<path fill-rule="evenodd" clip-rule="evenodd" d="M27.3573 48.6422C27.328 48.0184 27.317 47.3945 27.3023 46.7743C27.2729 45.4129 27.2436 44.0477 27.0674 42.6826C26.9059 41.4349 26.7188 40.1872 26.517 38.9431C26.1642 36.9036 25.753 34.8747 25.2839 32.8587C25.1298 32.1652 24.8619 31.4863 24.5757 30.8294C24.3665 30.3523 24.194 29.8606 24.0179 29.3688C23.816 28.8074 23.6142 28.2459 23.3647 27.7028C23.3206 27.6074 23.2656 27.5193 23.2105 27.4312C23.1004 27.2661 22.9904 27.0899 22.9353 26.8294C21.1922 30.2569 18.517 32.033 14.7445 32.0514C11.0307 32.0661 8.28577 30.356 6.2821 27.2697C5.9665 27.5266 5.82338 27.8936 5.69494 28.2239L5.64356 28.345C4.96099 30.0294 4.32246 31.7211 4.12063 33.5633C4.00687 34.6275 3.84173 35.6918 3.68026 36.7486L3.61421 37.167C3.361 38.8257 3.13714 40.4954 3.01971 42.1725C2.86191 44.3009 2.69677 46.4294 2.52797 48.6019C2.35549 48.6422 2.19402 48.6422 1.99219 48.6422C2.10564 47.7314 2.16935 46.815 2.18301 45.8973C2.24173 44.0734 2.4509 42.2642 2.66008 40.4587L2.82522 38.9725C2.93531 37.945 3.0821 36.9174 3.23256 35.8973C3.37934 34.8881 3.52613 33.8789 3.63622 32.8624C3.81604 31.2477 4.43989 29.7358 5.10411 28.2532L5.13347 28.1798C5.51512 27.3248 5.89677 26.4661 6.50962 25.7395C6.98301 25.178 7.51879 24.6789 8.15366 24.3083C8.66375 24.011 8.82888 24.0734 9.00136 24.6385C9.35365 25.7945 9.9665 26.7853 10.9573 27.4606C12.528 28.5248 14.2234 29.0092 16.1426 28.4477C17.4821 28.0551 18.5867 27.3798 19.383 26.2385C19.6913 25.7982 19.9702 25.3211 20.0619 24.7707C19.8353 24.6957 19.6125 24.6099 19.394 24.5138V24.5101C19.2839 24.4587 19.1482 24.4 19.2069 24.2349C19.2509 24.1101 19.3537 24.0184 19.4931 24.0404C20.7078 24.2055 21.8601 24.4697 22.6637 25.5486C23.4001 26.5491 23.9861 27.6519 24.4032 28.822L24.6784 29.5707C25.1408 30.8074 25.5995 32.0441 25.9408 33.3211C26.0729 33.8275 26.1757 34.3376 26.2748 34.8514L26.4069 35.5083L26.5977 36.378C26.7445 37.0459 26.8913 37.7101 26.9977 38.3853C27.0711 38.8477 27.1445 39.3101 27.2252 39.7725C27.4454 41.0863 27.6729 42.4037 27.7316 43.7431C27.761 44.4037 27.805 45.0642 27.8564 45.7248C27.8968 46.2752 27.9371 46.8294 27.9665 47.3872C27.9812 47.6881 27.9518 47.9927 27.9188 48.3046L27.8894 48.6202C27.7133 48.6422 27.5335 48.6532 27.3537 48.6459L27.3573 48.6422ZM20.5647 25.1376C20.2711 25.8165 19.9848 26.4954 19.4894 27.0606C18.2307 28.4954 16.6014 29.1523 14.7408 29.2074C13.4931 29.2441 12.2637 28.9872 11.1812 28.2899C10.1353 27.6147 9.23622 26.7963 8.79586 25.5743L8.75182 25.4349C8.67843 25.222 8.60503 25.0019 8.43622 24.8477C7.95182 24.9578 7.82338 25.2624 7.90044 25.6918L7.93347 25.9046C7.95182 26.0514 7.97017 26.1982 8.02155 26.334C8.48026 27.633 9.37934 28.5872 10.528 29.2844C11.4307 29.8349 12.4142 30.1945 13.4931 30.3303C15.7059 30.6055 17.7683 30.3119 19.5959 28.9431C20.138 28.5596 20.5928 28.0658 20.9306 27.4941C21.2683 26.9223 21.4813 26.2856 21.5555 25.6257C21.6179 25.0752 21.2913 24.8184 20.6491 24.9395L20.5647 25.1376ZM7.30962 25.7174C8.04356 28.7266 10.1353 30.1725 12.95 30.8037C14.3812 31.1633 15.739 31.1046 17.1004 30.7486C18.616 30.356 19.9482 29.6734 20.9463 28.4367C21.5555 27.6734 22.0069 26.833 22.0215 25.8092C22.572 26.0954 22.627 26.2936 22.2601 26.9835C21.4732 28.5133 20.2359 29.7647 18.7151 30.5688C17.0124 31.4496 15.1775 31.6844 13.2619 31.3945C11.2729 31.0973 9.63989 30.1578 8.2087 28.811C7.71463 28.3093 7.28109 27.7513 6.91696 27.1486L6.66742 26.7707C6.56834 26.6239 6.63072 26.5064 6.7298 26.3927C6.9224 26.1658 7.11567 25.9395 7.30962 25.7138V25.7174Z" fill="black"/>
<path fill-rule="evenodd" clip-rule="evenodd" d="M-1.57884 48.642C-1.41004 48.0768 -1.34765 47.4933 -1.28526 46.9062C-1.25591 46.6126 -1.22288 46.319 -1.17884 46.0255L-1.07976 45.3649C-0.951319 44.4768 -0.822879 43.5888 -0.624714 42.708L-0.444898 41.9521C-0.331136 41.464 -0.213704 40.9759 -0.125631 40.4805C0.0211582 39.6365 0.2707 38.8108 0.622993 38.0255C1.15387 36.8486 1.43143 35.5733 1.43767 34.2823C1.45908 33.6374 1.51666 32.9942 1.61015 32.3557C1.67253 31.8787 1.73125 31.4016 1.76061 30.9245C1.81932 30.0181 1.77529 29.1264 1.72391 28.1502C1.58446 28.2603 1.44868 28.3704 1.32024 28.4805C1.0554 28.7011 0.786236 28.9164 0.512901 29.1264C-1.06508 30.3154 -2.29077 31.8126 -3.34031 33.4566C-3.73861 34.1068 -4.10361 34.7768 -4.43389 35.464C-4.57334 35.7392 -4.70912 36.0144 -4.85224 36.286C-5.41566 37.4069 -5.90956 38.5613 -6.33114 39.7429C-6.40453 39.9557 -6.48893 40.1649 -6.566 40.3741C-7.22288 42.0989 -7.87976 43.831 -8.13664 45.6732C-8.21003 46.2016 -8.35682 46.708 -8.49994 47.2181C-8.62838 47.6732 -8.75682 48.1282 -8.84123 48.6089C-9.04306 48.6456 -9.23756 48.6456 -9.46875 48.6456L-9.366 48.286C-9.05774 47.2034 -8.74214 46.1172 -8.58435 44.9833C-8.50728 44.4108 -8.34214 43.8456 -8.17701 43.2878L-8.06692 42.9025C-7.90178 42.3337 -7.68893 41.7833 -7.47976 41.2328C-7.29627 40.7557 -7.11279 40.2787 -6.95866 39.7833C-6.77884 39.2034 -6.53664 38.6383 -6.29811 38.0768C-6.20636 37.8677 -6.11462 37.6622 -6.03022 37.453C-5.42104 35.9741 -4.65774 34.5686 -3.86508 33.1851L-3.85407 33.1667C-3.58251 32.6933 -3.30361 32.2089 -2.89994 31.82C-2.58068 31.5154 -2.56233 31.1227 -2.54398 30.73C-2.53845 30.4819 -2.50895 30.2349 -2.45591 29.9924C-2.27242 28.8291 -2.08526 27.6585 -1.49444 26.6236C-0.877925 25.5447 0.142259 24.9466 1.33125 24.6566C2.1973 24.4438 3.07804 24.3117 3.96611 24.253C4.33308 24.2346 4.69272 24.1172 5.05235 23.9998C5.24318 23.9374 5.43767 23.875 5.63217 23.8273C5.81565 23.7833 5.99914 23.7319 6.18263 23.6805C6.89088 23.4933 7.5918 23.3025 8.32941 23.3392H8.36611C8.5129 23.3466 8.6707 23.3502 8.69639 23.5411C8.7184 23.7282 8.58629 23.7539 8.45419 23.7796L8.38079 23.7943L6.83951 24.1576C5.8707 24.3851 4.90556 24.6163 3.92575 24.8291C3.50373 24.9209 3.06336 24.9466 2.62666 24.9759L2.30373 24.9979C1.98813 25.02 1.69088 25.0603 1.43033 25.2291C2.37712 25.82 2.93492 26.6163 2.92024 27.7539C2.90923 28.4255 2.93859 29.0933 2.96428 29.7649C3.00097 30.6493 3.03767 31.5337 2.98629 32.4181C2.92391 33.5741 2.79547 34.7154 2.62299 35.8603C2.52391 36.5245 2.45052 37.1961 2.37345 37.864C2.30006 38.4952 2.22666 39.1264 2.13859 39.7539C2.04685 40.3777 1.98813 41.0089 1.92575 41.6365C1.8707 42.2163 1.81565 42.7961 1.73492 43.3759C1.63951 44.0548 1.57345 44.7337 1.50373 45.4163C1.44501 46.0034 1.3863 46.5979 1.30923 47.1851C1.29088 47.3319 1.28354 47.486 1.27253 47.6365C1.25419 47.9557 1.23584 48.2787 1.12575 48.6089C0.916571 48.6456 0.707397 48.6456 0.501892 48.6089C0.788166 47.3884 0.992899 46.1502 1.11474 44.9025L1.12941 44.7631C1.20281 44.1576 1.25419 43.5521 1.30923 42.9429C1.39364 41.9521 1.48171 40.9612 1.65052 39.9777C1.71215 39.5824 1.75501 39.1844 1.77896 38.7851C1.81932 38.2677 1.85969 37.7502 1.98079 37.2401C2.25609 35.9604 2.41575 34.6585 2.45786 33.3502C2.56061 31.431 2.5863 29.5044 2.46886 27.5888C2.43217 26.9759 2.30006 26.3594 1.75327 25.864C1.81198 26.0475 1.87437 26.22 1.93675 26.3888C2.07253 26.7484 2.20097 27.086 2.23033 27.4346C2.31098 28.4441 2.33793 29.4572 2.31107 30.4695C2.29272 31.6511 2.16428 32.8255 2.03217 33.9998L1.90373 35.2144C1.77162 36.5502 1.58446 37.8713 1.39363 39.1924L1.14776 40.9576C1.07437 41.4897 1.02299 42.0255 0.964276 42.5612C0.901892 43.2034 0.835837 43.8456 0.740424 44.4842C0.681708 44.8878 0.645011 45.2989 0.608314 45.7062C0.545929 46.3851 0.487213 47.064 0.314736 47.7282C0.307397 47.7722 0.292718 47.82 0.278039 47.864C0.208314 48.1135 0.131249 48.3777 0.25969 48.6456C0.0547428 48.6505 -0.150256 48.6383 -0.353154 48.6089C-0.323796 48.3227 -0.279759 48.0475 -0.235723 47.7759C-0.199025 47.5374 -0.158659 47.2989 -0.132971 47.0566C-0.0815945 46.5539 -0.0228786 46.0548 0.0321665 45.5557L0.215653 43.9007C0.325745 42.8365 0.465195 41.7759 0.608314 40.7154L0.7918 39.3576C0.718406 39.6585 0.630332 39.9521 0.542258 40.242C0.413818 40.664 0.285378 41.0823 0.219323 41.5117C0.12391 42.1282 -0.000861168 42.7337 -0.132971 43.3466C-0.298108 44.1355 -0.463245 44.9245 -0.558659 45.7319L-0.672421 46.5649C-0.791942 47.2523 -0.856976 47.948 -0.866916 48.6456H-1.57884V48.642ZM0.634002 28.3007C0.853819 28.058 1.10714 27.8479 1.3863 27.6768C1.63217 27.5374 1.70189 27.3099 1.61382 27.0787C1.56978 26.9686 1.5551 26.8401 1.53675 26.7154C1.49639 26.4291 1.45602 26.1392 1.11107 25.9924C0.927579 25.9117 0.751433 25.9814 0.622993 26.0732C0.376967 26.2383 0.16101 26.4444 -0.0155392 26.6823C-0.646731 27.6365 -0.995357 28.708 -1.32563 29.9227C-0.921962 29.519 -0.510952 29.2071 -0.103613 28.8915C0.145928 28.7007 0.3918 28.5099 0.634002 28.3044V28.3007ZM-0.745814 26.8328C-1.10545 27.6989 -1.46875 28.5576 -1.55315 29.5117C-1.5745 29.9267 -1.72028 30.3256 -1.9715 30.6566L-1.83572 29.9961C-1.58618 28.7704 -1.33664 27.5411 -0.595356 26.4732L-0.742145 26.8328H-0.745814ZM37.3753 43.3135C37.9551 45.0383 38.2597 46.8365 38.5349 48.642C38.7368 48.642 38.9019 48.642 39.0707 48.6053C38.9239 47.1594 38.6046 45.7906 38.2854 44.4218L38.278 44.3998C38.1312 43.7539 37.9184 43.1264 37.7056 42.4988L37.5221 41.9484C37.052 40.451 36.5182 38.9745 35.9221 37.5227C35.5866 36.7702 35.2131 36.0353 34.8028 35.3209C34.6303 35.0089 34.4725 34.697 34.3147 34.3777C33.9534 33.6034 33.5118 32.8691 32.9973 32.1869C32.7845 31.9154 32.5643 31.6401 32.4652 31.3319C32.0405 30.0648 31.5854 28.8082 31.1001 27.5631C30.8396 26.8275 30.4312 26.1531 29.9001 25.5814C29.1514 24.8108 28.1386 24.5355 27.1441 24.297C26.3001 24.0989 25.4524 23.93 24.6046 23.7649L23.1184 23.464C21.8652 23.2032 20.5804 23.129 19.3056 23.2438C19.1037 23.2622 18.9386 23.3099 18.8652 23.6328C19.401 23.6952 19.9368 23.7062 20.4689 23.7209C21.3569 23.7466 22.245 23.7686 23.1257 24.0108C24.0505 24.2603 24.9973 24.4622 25.9661 24.6677C26.4248 24.7631 26.8835 24.8585 27.3569 24.9649C27.0193 25.3209 27.0083 25.6768 26.9973 26.0291L26.9936 26.1943C26.9643 26.708 27.045 27.2108 27.1221 27.7135C27.1771 28.0585 27.2322 28.4034 27.2505 28.7484C27.3386 30.3924 27.6028 32.0144 27.867 33.6291L27.9147 33.9374C28.0432 34.719 28.1349 35.5044 28.2267 36.286C28.3111 36.9833 28.3918 37.6842 28.5019 38.3777C28.6744 39.5154 28.7368 40.6677 28.7991 41.8163C28.8432 42.5979 28.8872 43.3796 28.9643 44.1612C29.0377 44.9319 29.0964 45.7062 29.1514 46.4842C29.2028 47.2034 29.2542 47.9227 29.3239 48.642H29.7569C29.7349 46.8401 29.6028 45.0456 29.467 43.2475C29.401 42.3227 29.3312 41.4016 29.2762 40.4805C29.222 39.7116 29.1363 38.9452 29.0193 38.1833C28.9606 37.7869 28.9092 37.3943 28.8579 37.0016C28.7221 35.8383 28.5386 34.6823 28.3551 33.5264C28.1973 32.5282 28.0395 31.5337 27.9147 30.5319C27.8487 30.0475 27.7679 29.5704 27.6946 29.0897C27.5257 28.0915 27.3643 27.097 27.3496 26.0805C27.3459 25.6768 27.4744 25.3576 27.8083 25.0897C27.2725 26.1943 27.5074 27.2622 27.7423 28.319C27.8046 28.6016 27.8634 28.8768 27.9111 29.1557C27.9551 29.4016 28.0028 29.6438 28.0579 29.8897C28.1569 30.3777 28.2597 30.8695 28.2854 31.3649C28.3074 31.7759 28.3881 32.1722 28.4615 32.5649C28.5166 32.8401 28.5716 33.1154 28.6083 33.3979C28.6964 34.1209 28.8138 34.8401 28.9312 35.5631C29.1147 36.686 29.2982 37.8089 29.379 38.9502C29.445 39.9227 29.6358 40.8915 29.8193 41.8493L29.845 41.9961C29.9368 42.4658 29.9551 42.9429 29.9698 43.4053L29.9735 43.4823C30.0055 44.1601 30.0569 44.8368 30.1276 45.5117C30.2083 46.3924 30.2927 47.2695 30.2927 48.1539L30.2817 48.3154C30.278 48.4034 30.2707 48.4988 30.278 48.6089C30.4155 48.6382 30.556 48.6505 30.6964 48.6456C30.7955 46.9833 30.6817 45.3282 30.5349 43.5814C31.0487 45.0493 31.3056 46.4952 31.5624 47.9631L31.6725 48.6016C31.8707 48.6383 32.0762 48.6456 32.278 48.6126C32.1312 48.2897 32.1092 47.9557 32.0872 47.6291C32.0689 47.4236 32.0542 47.2218 32.0138 47.0236L31.889 46.4878C31.6028 45.2034 31.3166 43.919 30.7881 42.6897L30.6744 42.4365C30.518 42.1491 30.4148 41.8358 30.3698 41.5117C30.3294 40.9612 30.2193 40.4218 30.1129 39.8897L30.0212 39.4383C29.899 38.7573 29.8035 38.0717 29.7349 37.3833C29.6542 36.6823 29.5734 35.9777 29.4377 35.2805C29.3019 34.5906 29.1808 33.897 29.067 33.2034C28.8835 32.1209 28.7001 31.0383 28.4432 29.9631L28.3698 29.6548C28.2465 29.2119 28.1642 28.7586 28.1239 28.3007C28.1826 28.3264 28.2377 28.3411 28.2854 28.3594C28.3735 28.3888 28.4395 28.4108 28.4946 28.4511L28.5312 28.4805C29.6762 29.3612 30.8285 30.2493 31.7276 31.3979C32.5241 32.3887 33.213 33.4614 33.7826 34.5979C33.9955 35.0383 34.223 35.4787 34.4432 35.9154C34.9401 36.8484 35.3944 37.8035 35.8046 38.7778C36.2377 39.8383 36.59 40.9245 36.9423 42.0071C37.0817 42.4475 37.2248 42.8805 37.3716 43.3135H37.3753ZM28.4358 27.7979C28.212 27.6695 28.0542 27.497 28.0175 27.2328C27.8754 26.8406 27.8388 26.4179 27.9111 26.0071C27.9918 25.4456 28.3771 25.2878 28.8835 25.53C29.6138 25.8713 29.9331 26.5392 30.245 27.1888C30.2817 27.2548 30.3111 27.3245 30.3441 27.3906C30.645 28.0108 30.8946 28.6566 31.1588 29.3429L31.5257 30.297L31.1074 29.9007C30.4765 29.2761 29.7967 28.703 29.0744 28.1869C28.8689 28.0475 28.6524 27.9227 28.4358 27.7979Z" fill="black"/>
<path d="M5.17337 2.91032C7.00089 -0.697016 16.4101 -4.05481 15.6504 -4.63463C15.6394 -4.82546 15.7605 -4.92821 15.9183 -4.97224C17.5697 -5.44197 19.2431 -5.83463 20.9752 -5.75023C22.6449 -5.66949 23.9183 -4.89151 24.6669 -3.38692C25.0816 -2.5539 25.3789 -1.65848 25.3275 -0.697015C25.308 -0.528119 25.3346 -0.357105 25.4044 -0.202066C25.4741 -0.0470281 25.5845 0.0862679 25.7238 0.183719C26.9238 1.13051 27.0449 3.44243 25.9257 4.46996C25.7532 4.62776 25.9 4.81858 25.9624 5.05711C26.1091 5.64427 25.7422 6.18372 25.4229 6.66445C25.1073 7.14152 25.0816 7.72867 24.755 8.22776C24.7073 6.56537 24.9752 4.86262 24.1422 3.23693C23.4194 4.20688 22.4126 4.9277 21.2614 5.29931C19.7252 5.83779 18.0727 5.95438 16.4761 5.63693C15.3752 5.43143 14.2486 5.34702 13.1293 5.28097C12.4924 5.22453 11.8508 5.30577 11.248 5.51915C10.6452 5.73253 10.0953 6.07307 9.63575 6.51766C9.06587 7.06265 8.73362 7.8102 8.71098 8.5984C8.63759 9.73601 8.54951 10.8736 8.63759 12.0112C8.65594 12.3011 8.60823 12.6167 8.25227 12.6681C7.96603 12.7048 7.7385 12.558 7.55502 12.3085C7.23942 11.8681 7.2908 11.303 7.00089 10.8406C6.77807 10.4572 6.47523 10.1263 6.113 9.87044C5.75077 9.6146 5.33766 9.43983 4.90181 9.35803C4.7697 9.33234 4.66327 9.39473 4.54584 9.44243C4.14951 9.61124 4.00273 9.48647 3.933 9.04977C3.7752 8.01124 3.34951 6.51766 5.17704 2.91032H5.17337Z" fill="black"/>
<path d="M19.2501 19.4865C18.8685 19.0315 18.4941 18.6425 17.8593 18.7269C17.8356 18.7311 17.8113 18.7303 17.7878 18.7247C17.7644 18.7191 17.7424 18.7088 17.7232 18.6943C17.7039 18.6799 17.6878 18.6616 17.6759 18.6407C17.6639 18.6198 17.6564 18.5967 17.6538 18.5728C17.6354 18.47 17.6941 18.4003 17.7712 18.3342C18.0574 18.0847 18.5785 18.0847 19.0409 18.3452C19.4446 18.5654 19.7272 19.0682 19.6611 19.4241C19.5987 19.7397 19.4483 19.67 19.2501 19.4865Z" fill="black"/>
<path d="M17.334 15.3025C17.5321 14.9833 18.1633 14.8548 18.512 15.0347C18.7542 15.1594 18.989 15.3136 19.2459 15.097C19.4844 14.8915 19.4147 14.6493 19.301 14.4108C19.2422 14.2934 19.2716 14.2016 19.3817 14.1356C19.4918 14.0658 19.5835 14.0952 19.6826 14.1649C19.8062 14.2508 19.9005 14.3724 19.953 14.5134C20.0055 14.6545 20.0136 14.8082 19.9762 14.9539C19.9175 15.2218 19.8367 15.5411 19.5101 15.6512C19.3633 15.7025 19.1872 15.7796 19.0588 15.7392C18.4936 15.5668 17.8184 15.864 17.334 15.2989V15.3025Z" fill="black"/>
<path d="M21.3346 13.4495C21.8116 13.4605 22.2667 13.4898 22.7144 13.5412C22.8245 13.5559 22.8979 13.6623 22.8979 13.7871C22.8979 13.9082 22.8355 13.9926 22.7254 14.044C22.3144 14.2201 21.918 14.3449 21.4887 14.0513C21.2502 13.8862 21.1584 13.732 21.3346 13.4495ZM15.4703 13.2476C15.7272 13.2476 15.7566 13.3871 15.7272 13.5596C15.6538 13.9339 14.9933 14.3816 14.6116 14.3119C14.3951 14.2752 14.2263 14.1651 14.219 13.9265C14.2116 13.6807 14.3951 13.6256 14.5969 13.6183C14.9272 13.6073 15.1768 13.4274 15.4703 13.2513V13.2476ZM14.2777 11.7651C14.4612 11.3247 14.608 10.6862 15.1621 10.9394C15.9217 11.2843 15.6722 12.066 15.518 12.6788C15.4593 12.91 14.9859 13.2623 14.8465 13.2036C14.2483 12.9541 14.1419 12.4073 14.2777 11.7651ZM22.6043 13.1155C22.2887 13.3908 21.9804 13.3944 21.7896 13.0605C21.4593 12.4733 21.474 11.8568 21.9107 11.3284C22.0024 11.2183 22.4171 11.1963 22.5089 11.2917C23.0226 11.8421 23.0447 12.4586 22.6043 13.1155Z" fill="black"/>
<path d="M16.1497 9.681C15.8304 9.23696 15.2249 9.09384 14.7258 9.22228C14.2855 9.33971 13.9295 9.62595 13.4928 9.75072C13.346 9.79109 13.2176 9.8498 13.1369 9.67366C13.0671 9.53054 13.0818 9.4021 13.2176 9.29567C13.9075 8.7709 15.1846 8.30852 16.1057 8.82228C16.3298 8.96005 16.5184 9.14862 16.6561 9.37274C16.7772 9.54522 16.8213 9.79843 16.6561 9.92687C16.4396 10.0957 16.2892 9.88283 16.1497 9.681ZM22.9717 9.90118C22.6158 9.66265 22.2781 9.63329 21.9442 9.87182C21.8268 9.95622 21.6983 10.048 21.5772 9.90118C21.4561 9.75072 21.4892 9.58558 21.6249 9.43879C21.8304 9.21494 22.1093 9.17824 22.3882 9.14522C22.7125 9.11441 23.0357 9.21275 23.2879 9.41887C23.5401 9.62499 23.7007 9.92226 23.735 10.2461C23.7424 10.4039 23.735 10.5801 23.5442 10.6241C23.3717 10.6608 23.2396 10.5617 23.1699 10.4076C23.1002 10.2535 23.0525 10.0883 22.9717 9.90118ZM19.4341 9.21127C19.6249 8.96907 19.7277 8.66081 19.9662 8.45531C20.058 8.37824 20.1277 8.25347 20.2781 8.33788C20.4139 8.41494 20.4249 8.55439 20.3882 8.66815C20.2745 8.98375 20.1424 9.29567 19.9956 9.60026C19.9222 9.74705 19.7387 9.8021 19.5919 9.75439C19.3497 9.681 19.4084 9.46448 19.4304 9.2443V9.2076L19.4341 9.21127Z" fill="black"/>
<path d="M19.4378 9.20392C19.3644 9.35805 19.3056 9.51585 19.2286 9.66631C19.1699 9.78007 19.0745 9.87915 18.935 9.83512C18.7662 9.78374 18.7515 9.64062 18.7882 9.49383C18.8323 9.34337 18.88 9.20025 18.935 9.05346C19.0084 8.88099 18.9901 8.59842 19.2763 8.63879C19.5845 8.68649 19.4378 8.94704 19.4378 9.16723V9.20392Z" fill="black"/>
</g>
</g>
<defs>
<clipPath id="clip0_43_2847">
<path d="M0 16C0 7.16344 7.16344 0 16 0C24.8366 0 32 7.16344 32 16C32 24.8366 24.8366 32 16 32C7.16344 32 0 24.8366 0 16Z" fill="white"/>
</clipPath>
</defs>
</svg>
