<svg width="40" height="40" viewBox="0 0 40 40" fill="none" xmlns="http://www.w3.org/2000/svg">
<g clip-path="url(#clip0_43_4049)">
<mask id="mask0_43_4049" style="mask-type:luminance" maskUnits="userSpaceOnUse" x="0" y="0" width="40" height="40">
<path d="M40 0H0V40H40V0Z" fill="white"/>
</mask>
<g mask="url(#mask0_43_4049)">
<path d="M29.7712 35.7201C25.2207 49.344 13.0831 53.5458 6.66565 36.6284C5.78033 34.3027 8.08767 33.4403 9.70234 32.4128C10.8078 31.7109 11.3904 31.1054 11.3216 30.477C11.0005 27.5229 9.62895 19.2935 9.62895 19.2935L9.49134 19.0275C9.49134 19.0275 9.52345 18.9541 9.39042 19.0825C9.2528 19.2201 8.93629 20.6513 7.69317 20.6513C6.56932 20.6513 5.43629 20.1513 4.89501 16.6926C4.68858 15.4403 4.79868 12.1559 6.19317 11.5596C6.76657 11.3164 7.29409 11.2293 7.80785 11.5229C8.3262 11.8164 7.21152 10.5137 12.9455 5.74305C16.6702 2.63296 22.5556 2.17883 24.9317 2.70635C27.3078 3.23387 29.6794 4.39442 30.7299 6.85773C32.0051 9.83938 29.5418 12.1008 30.0877 18.899C29.9867 21.3577 30.1244 26.7522 23.3629 28.5596C22.0785 28.9036 22.4776 30.7797 24.4042 31.2385C27.4776 32.2018 29.7712 34.555 29.7712 35.7293" fill="white"/>
<path fill-rule="evenodd" clip-rule="evenodd" d="M29.7711 14.5505L29.7757 14.4863C29.9638 12.8166 30.1518 11.1973 31.0188 9.74316C31.317 9.945 31.2803 10.2019 31.1885 10.4404C30.2757 12.789 30.3628 15.2294 30.4454 17.6698L30.4638 18.312C30.5601 21.3578 29.7986 24.1285 27.7711 26.4542C27.0647 27.2615 26.1289 27.8211 25.1794 28.3028C24.1977 28.8074 23.9913 29.2248 24.2986 30.3028L24.3353 30.4221C24.3995 30.601 24.4638 30.7844 24.2894 30.9633C24.083 31.1744 23.8537 31.1147 23.6105 31.0459L23.583 31.0413C21.3087 30.4045 19.176 29.3413 17.2986 27.9083C17.0234 27.7065 16.8032 27.4358 16.5876 27.1698L16.5739 27.1514C16.4592 27.0138 16.4362 26.7936 16.5968 26.6744C16.7482 26.5597 16.8628 26.6514 16.9959 26.7569L17.0417 26.7982C18.0434 27.6109 19.2591 28.116 20.5417 28.2523C21.1564 28.3166 21.7619 28.2936 22.3766 28.2707C22.7161 28.2569 23.0555 28.2432 23.3995 28.2478C23.8674 28.2478 24.2573 28.0322 24.6243 27.8257L24.7528 27.7523C26.028 27.0413 27.2436 26.2478 28.0647 24.9679C28.8032 23.8211 29.2528 22.5734 29.5142 21.2569C29.8445 19.601 29.817 17.9221 29.7894 16.2202C29.7757 15.6698 29.7665 15.1101 29.7665 14.5505H29.7711ZM6.67936 11.0918C7.68394 11.0138 8.23899 11.6055 8.71147 12.2982C9.27144 13.1445 9.62352 14.1111 9.73899 15.1193C9.76192 15.289 9.78486 15.4679 9.68394 15.6377C9.47752 15.6652 9.45917 15.5 9.45459 15.3808C9.43165 14.4312 9.00963 13.6055 8.58761 12.8074C8.28486 12.234 7.84449 11.6789 7.14725 11.5413C6.35825 11.3808 5.63348 12.0918 5.27569 13.0184C4.61055 14.7432 4.72523 16.4404 5.33991 18.1101C5.60596 18.8395 5.94082 19.5826 6.61514 20.0918C7.29403 20.6101 8.11514 20.5184 8.61514 19.8303L8.70688 19.7156C8.79862 19.5964 8.89037 19.4817 8.93624 19.3487C9.03257 19.0826 9.18394 18.8349 9.45459 18.8716C9.76651 18.9175 9.82156 19.2523 9.85367 19.5138C10.1382 21.9168 10.4747 24.3134 10.8628 26.7019L11.1335 28.4817C11.2528 29.2661 11.3904 30.3945 11.2986 30.8716C11.2927 30.905 11.2881 30.9387 11.2849 30.9725C11.2665 31.101 11.2573 31.2019 11.0922 31.2248C10.8674 31.2615 10.7711 31.1331 10.739 30.9312C10.6335 30.1514 10.6014 29.8487 10.5555 28.656C10.5142 27.5 10.2986 26.3624 10.0784 25.2202L9.84908 23.9817C9.61055 22.5689 9.3766 21.1377 9.35367 19.5322L9.26192 19.6698C8.9133 20.1881 8.63348 20.6101 8.13807 20.7707C7.77032 20.9116 7.3673 20.932 6.98721 20.8289C6.60711 20.7259 6.2696 20.5047 6.02339 20.1973C5.37701 19.4672 4.92293 18.5875 4.70229 17.6377C4.31697 16.078 4.24816 14.5597 4.74358 13.023C4.98211 12.2844 5.83073 10.9725 6.67936 11.0964V11.0918ZM8.26651 16.9404C8.46835 17.0872 8.65183 17.2156 8.81697 16.6927C8.76651 14.7569 8.14266 13.5184 7.17477 13.4679C7.68853 14.1377 8.18394 14.789 8.22981 15.6927C8.03894 15.5952 7.87148 15.4575 7.73899 15.289C7.64725 15.1881 7.5555 15.0872 7.44082 15.0138L7.30321 14.9037C7.08303 14.7386 6.85826 14.5643 6.4867 14.6973C6.66101 14.9633 6.89954 15.156 7.14266 15.3395C7.41789 15.5551 7.69312 15.7661 7.85826 16.0964C7.37202 16.4496 7.16101 16.9083 7.4133 17.4679C7.63348 17.9496 7.95917 18.3487 8.60137 18.3762C8.57385 18.0872 8.38578 17.8762 8.1977 17.6698C7.96835 17.4221 7.75275 17.1835 7.85367 16.8166C8.00046 16.7478 8.13807 16.8487 8.26651 16.9404Z" fill="black"/>
<path d="M48 60.2525L-11.8027 60.1011C-11.8027 60.1011 -10.2752 50.4818 -7.38989 45.0139C-4.04127 38.6516 0.573412 32.8121 10.9587 30.3213C11.3716 30.225 15.367 32.3534 16.8486 33.0873C17.5367 33.4268 20.3853 33.2204 20.3853 33.2204L25.4679 30.702C25.4679 30.702 31.4496 32.6286 34.4863 34.3396C38.3486 36.5094 42.7064 42.9176 44.7156 47.9176C46.8532 53.2295 48 60.2571 48 60.2571V60.2525Z" fill="white"/>
<path d="M17.1287 60.2526C17.1287 60.2526 17.0462 54.4085 17.1104 52.4636C17.2021 49.5003 18.0049 39.436 18.0049 39.436C18.0049 39.436 18.7755 39.647 19.1746 39.5599C19.648 39.3999 20.1148 39.2209 20.5737 39.0232C20.5737 39.0232 22.6104 43.9085 23.0324 45.6149C23.748 48.4957 24.5599 57.381 24.5599 57.381L24.6884 60.2526H17.1287Z" fill="black"/>
<path fill-rule="evenodd" clip-rule="evenodd" d="M46.9087 56.6972C47.161 57.8807 47.4133 59.0687 47.7115 60.2522C47.9225 60.2522 48.0831 60.2522 48.2298 60.2109C47.9919 59.2951 47.8127 58.3651 47.6931 57.4265C47.6014 56.8256 47.5097 56.2247 47.3904 55.6375C47.106 54.243 46.7849 52.8623 46.3812 51.5091C45.9225 49.9678 45.3996 48.4357 44.762 46.954C44.1371 45.4059 43.3981 43.9064 42.5509 42.4678C41.3525 40.5172 39.9816 38.6781 38.4546 36.9724C36.7298 35.0504 34.5372 33.8302 32.2757 32.7797C30.7131 32.0154 29.0991 31.3609 27.4454 30.821C26.2711 30.4632 25.0601 30.2522 23.8216 30.2614C23.5464 30.2614 23.395 30.4265 23.5693 30.61C23.9454 31.0045 23.6794 31.1513 23.4179 31.2935C23.2781 31.3631 23.1418 31.4396 23.0097 31.5229C22.5913 31.7867 22.1526 32.0168 21.6977 32.2109C21.4821 32.2935 21.2757 32.4036 21.0693 32.5183C20.6748 32.7385 20.2757 32.9586 19.817 32.9495C19.4959 32.9449 19.1794 32.9495 18.8629 32.9632L18.1886 32.977C17.8583 32.977 17.5326 32.9219 17.2253 32.8027C16.6268 32.5631 16.0498 32.2731 15.5005 31.9357C15.0968 31.7063 14.6931 31.4724 14.2711 31.2751L13.739 31.032C12.8611 30.6705 12.0233 30.2185 11.239 29.6834C11.0005 29.5091 10.7711 29.6008 10.5785 29.7201C9.91333 30.1329 9.18397 30.3898 8.45461 30.6467C7.81241 30.8761 7.17021 31.1008 6.57388 31.4265C5.32158 32.1146 4.02342 32.7293 2.72984 33.344C0.321585 34.477 -1.6142 36.2385 -3.3619 38.2247C-4.3252 39.3164 -5.19676 40.4862 -5.97658 41.7201C-7.58265 44.2943 -8.87618 47.0507 -9.82979 49.9311L-9.88484 50.0917C-10.2397 51.0822 -10.5458 52.0895 -10.8023 53.11C-10.8757 53.4403 -10.9628 53.766 -11.0454 54.0917C-11.183 54.6329 -11.3206 55.1696 -11.4307 55.7155C-11.7197 57.2247 -11.9628 58.743 -12.1738 60.2568C-11.8848 60.2568 -11.6417 60.2568 -11.3894 60.2063C-11.3298 59.821 -11.2793 59.4449 -11.2289 59.0733C-11.128 58.344 -11.0316 57.6284 -10.8803 56.9265L-10.761 56.3485C-10.4674 54.9449 -10.1784 53.5412 -9.72429 52.1742C-9.67842 52.055 -9.64172 51.9311 -9.60043 51.8073C-9.16465 50.4953 -8.72887 49.1788 -8.19676 47.9036C-7.66025 46.6304 -7.06167 45.3843 -6.40319 44.1696C-5.09412 41.6943 -3.44168 39.4164 -1.49493 37.4036C-0.0499754 35.9173 1.6014 34.6972 3.46837 33.8027C3.57388 33.7568 3.68397 33.6926 3.78947 33.6329C4.21149 33.399 4.66103 33.1467 5.16562 33.344C6.19773 33.7385 7.22984 34.1605 8.20691 34.6742C9.52801 35.3623 10.8262 36.0917 12.1289 36.821C12.5326 37.0504 12.9363 37.2797 13.3399 37.4999L13.3629 37.5137C14.2711 38.0183 14.2711 38.0183 14.8491 37.1651L14.8858 37.1513L14.9087 37.1421C15.3399 37.3256 15.7253 37.6008 16.1106 37.8669C16.3308 38.0183 16.5464 38.1696 16.7757 38.3073C17.7115 38.8807 17.7986 39.11 17.4454 40.0779C17.239 40.6421 17.0418 41.2109 16.8399 41.7751C16.5739 42.5274 16.3078 43.2797 16.0326 44.0229C15.2963 45.9654 14.6835 47.9526 14.1977 49.9724C13.9592 50.9907 14.161 51.3577 15.1014 51.8531C15.3216 51.9724 15.5464 52.0825 15.7711 52.1972L16.4959 52.5733C16.739 52.7018 16.8766 52.8944 16.8491 53.1926C16.6794 54.9999 16.6197 56.8164 16.6106 58.6329C16.6106 58.9173 16.5785 59.2018 16.5464 59.4862C16.5142 59.743 16.4867 59.9999 16.4776 60.2522H17.1335C17.3996 57.7476 17.4821 55.2385 17.5647 52.7201C17.606 51.4586 17.7023 50.1972 17.7941 48.9357C17.8537 48.2155 17.9042 47.4907 17.95 46.7706C17.9867 46.2201 17.9959 45.6651 18.0005 45.11C18.0142 44.2751 18.028 43.4449 18.1243 42.6146C18.2069 41.9586 18.2665 41.2981 18.3308 40.6192L18.4225 39.6788C19.2023 39.9999 19.817 39.6926 20.4133 39.3118C20.7436 39.5871 20.8812 39.954 21.0097 40.3118L21.1243 40.6008C21.7482 42.0779 22.1564 43.6284 22.5464 45.1834C22.7574 46.0091 22.9592 46.8348 23.106 47.6788L23.1656 48.0366V48.055C23.4409 49.6559 23.7161 51.2568 23.9087 52.8715C24.0785 54.3394 24.1748 55.821 24.2757 57.2981L24.3812 58.9265C24.395 59.0825 24.395 59.2385 24.3996 59.399C24.4042 59.6559 24.4133 59.9219 24.45 60.2018C24.6748 60.2522 24.8353 60.2522 25.0142 60.2018C25.1427 57.188 24.7849 54.266 24.4087 51.344L24.3308 50.766C24.2849 50.4357 24.239 50.11 24.2023 49.7797C24.1005 48.8703 23.9505 47.9669 23.7528 47.0733C23.661 46.6696 23.5464 46.266 23.4271 45.8623C23.2895 45.4082 23.161 44.954 23.0647 44.4862C22.895 43.6238 22.606 42.8027 22.317 41.9816C21.9865 40.9872 21.5514 40.0308 21.0188 39.1284C20.9363 38.9907 20.8537 38.8027 21.0372 38.7155C21.4638 38.532 21.7986 38.2201 22.1381 37.9082C22.45 37.6238 22.762 37.3348 23.1473 37.1329L23.2298 37.3394C23.2895 37.477 23.3445 37.6146 23.4133 37.7339C23.8078 38.4265 24.0097 38.4678 24.6335 37.977C25.0097 37.688 25.4042 37.4265 25.7987 37.1651C26.2344 36.8807 26.6702 36.5962 27.0739 36.2706C27.6243 35.8256 28.2253 35.4495 28.8308 35.0779C29.5124 34.6802 30.1627 34.2309 30.7757 33.7339C31.8766 32.7935 33.6197 34.0274 35.7207 35.5091L35.7482 35.532C37.739 36.9357 39.2344 38.8348 40.6106 40.8164C41.5668 42.23 42.4221 43.7092 43.1702 45.243C43.9363 46.766 44.5922 48.3394 45.1243 49.954C45.8716 52.159 46.4693 54.4118 46.9133 56.6972H46.9087ZM14.1564 36.6513C14.0555 36.8302 13.9638 36.9357 13.7528 36.8485C12.7115 36.3485 11.7161 35.7935 10.7253 35.2339C9.13351 34.3348 7.56012 33.4495 5.84911 32.8669C5.84911 32.6375 5.9592 32.5825 6.05553 32.5366L6.07388 32.532C6.6748 32.2568 7.25736 31.9403 7.82158 31.5917C8.13411 31.3875 8.49877 31.2777 8.87204 31.2751C9.78947 31.2751 10.7069 31.2614 11.5326 30.7706C11.7528 30.6467 11.973 30.7109 12.1977 30.8394L12.9225 31.2614C13.9317 31.8577 14.95 32.4449 16.0188 32.9311C16.2253 33.0229 16.4317 33.1421 16.5509 33.3669C15.6165 34.3538 14.8118 35.456 14.1564 36.6467V36.6513ZM25.8858 36.3027C26.6198 35.6696 27.4454 35.1559 28.262 34.6421C28.9959 34.1834 29.7298 33.7247 30.3904 33.1834C30.3262 32.9907 30.2161 32.9082 30.106 32.8348C30.0859 32.8198 30.066 32.8045 30.0464 32.7889C29.2803 32.2018 28.395 31.8807 27.5005 31.5596C27.2023 31.4495 26.9042 31.344 26.6106 31.2247C26.1886 31.055 25.6748 30.8715 25.1473 31.1651L24.5097 31.5229C23.6074 32.0695 22.6606 32.539 21.6794 32.9265C21.3766 33.0366 21.3399 33.1834 21.5326 33.4495C21.7161 33.7018 21.8858 33.9586 22.0555 34.2201C22.262 34.5229 22.4638 34.8256 22.6794 35.1192C23.0555 35.6238 23.4454 36.1284 23.8353 36.6192L24.3308 37.2522C24.8583 36.9403 25.3399 36.6513 25.8858 36.3073V36.3027ZM17.5418 33.9219C17.7941 33.7293 18.0693 33.5871 18.4042 33.6329C19.5234 33.477 20.4225 33.7247 21.2253 34.3715C21.7757 34.8164 21.8078 35.1329 21.3812 35.7018C21.2803 35.8394 21.1977 35.9862 21.1152 36.1329C20.9775 36.3898 20.8399 36.6375 20.6014 36.821C19.7895 36.3807 18.9821 36.2706 18.1564 36.7522C17.9087 36.899 17.7253 36.821 17.5372 36.6284C17.2866 36.3743 17.0328 36.1235 16.7757 35.8761L16.4179 35.5274C16.1473 35.266 16.0647 35.0458 16.4638 34.7935C16.7069 34.6329 16.9225 34.4449 17.1519 34.2522C17.2757 34.1421 17.4087 34.0274 17.5418 33.9219ZM16.4271 51.7797C16.5647 51.8577 16.7161 51.9357 16.9409 51.9357L17.0464 49.2889C17.1381 46.977 17.2298 44.6696 17.4042 42.3623C17.1886 42.8256 17.0188 43.3027 16.8537 43.7751L16.606 44.454C15.8675 46.3944 15.2987 48.3898 14.817 50.4036C14.7436 50.7018 14.7528 50.954 15.0464 51.1054C15.4087 51.2889 15.7711 51.4724 16.2161 51.6834C16.2895 51.7063 16.3537 51.743 16.4271 51.7797ZM19.1106 37.0412C19.3614 36.9877 19.6227 37.0133 19.8583 37.1146C20.4546 37.6972 20.5326 38.1559 20.161 38.5825C19.6519 39.1788 18.872 39.3577 18.3537 38.9953C17.9592 38.7155 17.895 38.2889 18.0188 37.8944C18.1748 37.3898 18.6152 37.1375 19.1106 37.0412ZM17.2069 37.844C17.6794 37.7843 17.45 37.4449 17.3353 37.3348C16.9225 36.9311 16.4959 36.5504 16.0326 36.1421L15.5005 35.6696C15.473 35.8898 15.3675 36.0366 15.2711 36.1834C15.206 36.2696 15.1491 36.3617 15.1014 36.4586L15.1106 36.4678C15.7987 36.9265 16.473 37.3669 17.2069 37.844ZM21.5418 36.6972L21.7253 36.477L21.8491 36.266C21.9684 36.0596 22.0693 35.8852 22.2344 35.7614C22.8078 36.3256 22.8078 36.532 22.2574 36.9632C22.2023 37.0091 22.1473 37.0458 22.0876 37.0871C21.9592 37.1834 21.8262 37.2797 21.7161 37.399C21.5509 37.5687 21.3904 37.7293 21.1335 37.821C20.8904 37.6192 20.9179 37.4173 21.1198 37.1926C21.2665 37.032 21.4042 36.8669 21.5418 36.6972Z" fill="black"/>
<path d="M10.2076 4.33044C11.6618 5.63319 12.5333 6.86714 12.4829 7.94512C12.437 9.0231 11.8269 10.9038 11.5471 11.4176C11.2627 11.9359 11.2398 12.78 10.9599 13.7387C10.6755 14.702 10.5654 15.5139 9.79021 15.4176C9.01498 15.3259 9.50581 14.5139 8.78104 13.2249C8.04709 11.9359 7.67553 11.3259 6.73517 11.2525C5.79939 11.1837 5.76728 9.95888 6.0792 9.05062C6.39572 8.12402 6.85443 5.10567 7.6526 4.49558C8.45076 3.88549 10.2076 4.33044 10.2076 4.33044Z" fill="white"/>
<path fill-rule="evenodd" clip-rule="evenodd" d="M14.8261 6.44489C14.7114 6.8348 14.4499 7.05957 14.1885 7.27975L14.0417 7.40819C13.349 8.02746 12.982 8.84397 12.6151 9.66508L12.4041 10.1238C11.8995 11.2018 11.5371 12.3256 11.1885 13.4541C11.1288 13.6513 11.0921 13.8531 11.0509 14.0504C10.982 14.4449 10.9086 14.8394 10.6655 15.1788C10.6543 15.1961 10.6451 15.2146 10.638 15.2339C10.6288 15.2522 10.6242 15.266 10.6105 15.2798L10.5417 15.3944C10.3353 15.7064 10.1197 16.0366 9.73434 16.0458C9.36737 16.0458 9.30314 15.7614 9.23892 15.4816C9.21599 15.3807 9.19305 15.2843 9.16094 15.2018C9.05262 14.9174 8.97571 14.6221 8.93159 14.321C8.87195 13.9862 8.81232 13.6559 8.66553 13.344C8.11966 12.2018 7.41782 11.3256 5.97746 11.3898C5.51874 11.4128 5.55544 10.9632 5.61966 10.6834C5.70681 10.3256 5.77104 9.96324 5.83526 9.59627C5.927 9.10085 6.01874 8.60085 6.15636 8.11462C6.27562 7.72012 6.38113 7.32104 6.48663 6.92196C6.69764 6.1192 6.90865 5.31645 7.21599 4.53663C7.78783 3.08232 8.70393 1.78845 9.88571 0.765992C11.3536 -0.532173 12.9912 -1.56428 14.7252 -2.47254C16.8123 -3.56428 19.0371 -4.22483 21.3261 -4.74318C23.2389 -5.17896 25.1609 -5.16061 27.0692 -4.76153C28.3674 -4.4863 29.638 -4.05052 30.5279 -2.9863C31.8628 -1.37162 32.505 0.426543 31.8215 2.54581C31.6237 3.19462 31.3415 3.81461 30.982 4.38985C30.0417 5.85774 28.5692 6.18342 26.9775 6.23388C25.5233 6.27975 24.0875 6.07333 22.6976 5.68342C20.9833 5.18533 19.1571 5.22859 17.4683 5.80728C16.8074 5.98973 16.1191 6.05188 15.4362 5.99076C15.1197 5.98159 14.9041 6.06416 14.8307 6.44948L14.8261 6.44489ZM9.3536 12.7385C9.11048 13.2385 9.2481 13.688 9.3903 14.1376C9.48799 14.4013 9.54672 14.6779 9.56461 14.9587C9.79397 14.5917 10.1059 14.477 10.4545 14.4862L10.5233 14.2018L10.6609 13.6513L10.7619 13.3486C10.8903 12.9724 11.0187 12.6009 10.7986 12.1559C10.6564 11.8669 10.8811 11.4908 11.1655 11.2981C11.5554 11.0366 11.7022 10.6788 11.794 10.1651C11.427 10.6697 11.427 10.6697 11.06 10.7293C10.8674 9.85773 11.06 9.60544 11.9591 9.55498C12.3811 8.60085 12.1105 7.42196 11.2573 6.57333L11.1426 6.74764C11.0509 6.88526 10.9591 7.02287 10.8582 7.14672C10.7389 7.29351 10.5509 7.37608 10.3903 7.27517C10.2206 7.17425 10.2848 7.01829 10.3444 6.86232L10.3674 6.80728C10.5011 6.52111 10.7208 6.2838 10.9958 6.12838C10.6931 5.57792 10.3077 5.13755 9.80315 4.8348C8.94993 4.32104 7.92241 4.72012 7.67012 5.64214C7.61507 5.84397 7.55085 6.00911 7.37654 6.1192C6.97287 6.38067 6.88571 6.79351 6.81232 7.35773L6.84902 7.2981C7.00498 7.05498 7.11507 6.88526 7.33984 6.9403C7.45911 6.96783 7.55085 7.10544 7.50498 7.21553C7.46828 7.31645 7.44076 7.42654 7.41324 7.53663C7.3536 7.80269 7.28938 8.06874 7.01874 8.22929C6.99122 8.24764 6.94535 8.24306 6.91324 8.23847L6.88571 8.23388C6.78021 8.18801 6.77103 8.10085 6.75727 8.0137C6.7481 7.9403 6.73434 7.86232 6.66553 7.80269C6.61762 8.0256 6.60217 8.25426 6.61966 8.48159C6.62883 8.92654 6.63801 9.35774 6.18388 9.68801L6.28938 9.6559C6.51874 9.58251 6.73434 9.51829 6.79397 9.7981C6.8903 10.2752 6.61966 10.5825 6.1059 10.7293C6.46286 10.9771 6.88697 11.1099 7.32149 11.11C7.36737 11.0366 7.40406 10.9632 7.44076 10.8898L7.47287 10.7798C7.5325 10.5871 7.59214 10.3853 7.87654 10.5045C8.13801 10.6146 8.02333 10.8348 7.93617 11.0045L7.91324 11.0504C7.79856 11.2798 7.82149 11.4403 8.00498 11.6146C8.24206 11.8379 8.4686 12.0721 8.68388 12.3165C8.75727 12.2843 8.82149 12.2247 8.88113 12.1697C8.99581 12.0642 9.09672 11.9678 9.26645 12.0642C9.44993 12.1697 9.42241 12.3486 9.38113 12.5642C9.37023 12.622 9.36106 12.6801 9.3536 12.7385ZM30.3628 3.80269C31.1242 2.64214 31.2481 1.32104 31.3582 -0.00465012L31.2389 -0.692723L31.2298 -0.747769C31.5223 0.0163789 31.5961 0.846909 31.4429 1.65067C31.2898 2.45443 30.9158 3.19963 30.3628 3.80269Z" fill="black"/>
<path d="M30.2809 11.7109C30.2304 10.7476 30.524 9.86232 30.6295 8.95406C30.7488 7.93571 30.7029 6.92653 30.6754 5.91277C30.6708 5.70176 30.6754 5.49534 30.6983 5.28433C30.7304 4.97699 30.8451 4.71094 31.157 4.688C31.4414 4.67424 31.5515 4.94488 31.6295 5.20176C31.9277 6.16507 32.0194 7.1192 31.7855 8.13754C31.5223 9.19225 31.1803 10.2257 30.7625 11.2293C30.6846 11.4357 30.6295 11.7339 30.2809 11.7109ZM8.38639 5.18342C8.98272 5.3302 8.5974 5.69718 8.56987 5.95865C8.53776 6.26598 8.32217 6.5091 8.00107 6.52745C7.75336 6.54121 7.67079 6.32562 7.77171 6.11461C7.92767 5.78892 8.01483 5.41736 8.38639 5.17883V5.18342ZM11.0102 9.12378C10.7304 8.77516 10.8359 8.10543 11.157 7.9036C11.2625 7.83479 11.3726 7.81186 11.4873 7.88525C11.5928 7.95406 11.657 8.06874 11.6249 8.18342C11.5332 8.55498 11.4965 8.96323 11.0102 9.12378ZM10.3635 10.5825C10.7075 11.1238 10.2809 11.4357 10.0424 11.7843C9.95978 11.9128 9.75795 11.8761 9.68455 11.6697C9.54694 11.2843 9.88639 10.6926 10.3635 10.5825ZM8.9185 7.13754C8.81299 7.41277 8.69832 7.63754 8.61116 7.87149C8.52859 8.07791 8.38639 8.13754 8.19832 8.06415C8.01483 7.98617 8.04235 7.81186 8.07446 7.66048C8.12951 7.38525 8.28547 7.16048 8.46896 6.96323C8.68455 6.73846 8.83593 6.80727 8.9185 7.13754ZM10.0836 5.72929C9.89556 6.14213 9.87721 6.64672 9.30382 6.81186C9.16621 6.27975 9.33593 5.89901 9.67079 5.57332C9.85428 5.38984 9.97813 5.5091 10.0836 5.72929ZM9.28088 10.6238C9.21666 10.7889 9.17997 10.9311 9.09281 11.0229C8.97355 11.1559 8.92767 11.4357 8.67079 11.3394C8.43226 11.2476 8.50107 10.9999 8.53318 10.8256C8.57905 10.5229 8.75795 10.2614 9.04694 10.1972C9.2763 10.1467 9.28088 10.3944 9.2763 10.6238H9.28088ZM8.24419 9.20635C8.30382 9.07791 8.32676 8.97699 8.39098 8.90819C8.524 8.77057 8.52859 8.40819 8.81758 8.55498C9.11116 8.70176 8.97813 9.01369 8.89556 9.22929C8.81299 9.44947 8.66621 9.7247 8.37722 9.70176C8.10199 9.67883 8.16621 9.4403 8.24419 9.20635ZM10.2258 8.78892C10.2442 9.12837 10.2534 9.42195 10.0515 9.66965C9.95978 9.77975 9.8451 9.84397 9.69373 9.78433C9.524 9.71553 9.52859 9.5825 9.56988 9.44488C9.62492 9.25681 9.65703 9.05956 9.7396 8.88525C9.83134 8.688 9.96896 8.49534 10.2258 8.78892ZM9.89556 13.032C10.0882 12.8486 10.1112 12.3944 10.4277 12.5779C10.7809 12.7797 10.5011 13.0825 10.368 13.3348C10.2855 13.4999 10.1846 13.6788 9.98272 13.61C9.68914 13.5045 9.79923 13.2706 9.89556 13.032ZM7.05611 9.70176C6.96437 9.56415 6.96437 9.45406 7.03318 9.34855C7.14786 9.16507 7.14327 8.83938 7.45978 8.88984C7.73043 8.93112 7.66162 9.19718 7.62951 9.36232C7.57905 9.63754 7.45978 9.89442 7.05611 9.70176ZM9.84969 7.54121C9.88639 7.61461 9.90932 7.65131 9.90474 7.688C9.87721 7.89901 9.87263 8.13754 9.5974 8.17883C9.42767 8.20635 9.33593 8.08709 9.34969 7.93112C9.37263 7.65589 9.46896 7.42654 9.85428 7.54121H9.84969Z" fill="black"/>
<path d="M22.7848 23.5779C22.638 23.899 22.5233 24.2293 22.505 24.5871C22.4958 24.7981 22.5417 25.0366 22.7802 25.1192C23.0279 25.2064 23.1976 25.0733 23.3674 24.8623C23.6426 24.5183 23.7068 24.1192 23.7114 23.711C23.7114 23.4816 23.771 23.1697 23.4316 23.0825C23.083 22.9908 22.9408 23.2247 22.7894 23.5733L22.7848 23.5779Z" fill="white"/>
<path fill-rule="evenodd" clip-rule="evenodd" d="M22.7253 22.6833C22.0418 23.3714 21.9363 24.2154 22.0785 25.1742C22.3262 25.6696 22.7207 25.6879 23.1519 25.6283C24.129 25.4953 24.9684 24.0365 24.3446 22.9448C23.9134 22.1971 23.3354 22.0732 22.7253 22.6833ZM22.5051 24.5824C22.5234 24.2292 22.6381 23.8943 22.7849 23.5732C22.9409 23.2246 23.0831 22.9907 23.4271 23.0824C23.7345 23.1604 23.7207 23.4173 23.7161 23.6329V23.7109C23.7359 24.1233 23.6128 24.53 23.3675 24.8622C23.1978 25.0732 23.028 25.2063 22.7803 25.1191C22.5418 25.0365 22.4959 24.798 22.5051 24.5824Z" fill="black"/>
<path d="M25.8586 20.0181C24.4917 21.1694 22.8495 21.1373 21.8678 19.9768C21.6385 19.7015 21.5146 19.3804 21.377 19.0593C21.3219 18.9355 21.3082 18.7795 21.4779 18.7061C21.6247 18.6465 21.744 18.7061 21.8174 18.8438C21.9229 19.0272 22.0238 19.2199 22.1247 19.408C22.9045 20.9034 24.9504 20.3254 25.5926 19.4309C25.7761 19.174 25.7302 18.9171 25.5742 18.6649C25.1889 18.0318 24.7623 17.4263 24.4366 16.7612C24.0742 16.0318 23.7302 15.2749 23.9091 14.4126C23.955 14.1878 23.9917 13.9584 24.2118 13.8438C24.3724 13.9401 24.3495 14.0731 24.3403 14.1786C24.1935 15.6373 24.9641 16.7566 25.7531 17.8437C26.4183 18.7566 26.4779 19.1557 25.8586 20.0181Z" fill="black"/>
<path d="M27.2306 16.2847C27.0379 15.849 26.7765 15.5875 26.3223 15.5646C26.0471 15.5508 26.0012 15.3306 25.9141 15.115C26.0058 15.0462 26.0746 14.9453 26.1572 14.9407C27.1251 14.8627 28.1022 14.8581 29.07 14.9361C29.3453 14.9545 29.4967 15.3031 29.2168 15.4132C28.7581 15.5967 28.6434 16.0187 28.3682 16.3214C27.9921 16.7343 27.671 16.7389 27.2306 16.2847ZM18.4691 14.927C19.0288 14.9591 19.5288 14.9728 20.0288 15.0187C20.1939 15.0325 20.3957 15.1013 20.3957 15.326C20.3957 15.5829 20.1847 15.5646 20.015 15.56C19.726 15.56 19.57 15.6838 19.4416 15.9545C19.2856 16.2939 19.1251 16.6563 18.6159 16.6334C18.1343 16.6104 17.9233 16.3031 17.7856 15.9361C17.6847 15.6747 17.5563 15.5508 17.2811 15.56C17.1251 15.5646 16.9554 15.5508 16.937 15.3352C16.9187 15.1059 17.0746 15.06 17.2581 15.0049C17.6528 14.8998 18.0642 14.8733 18.4691 14.927Z" fill="black"/>
<path d="M20.4368 11.7246C20.6341 11.9815 21.0974 12.1008 20.8176 12.4953C20.5515 12.8714 20.102 12.8943 19.7029 12.7888C19.2671 12.6833 18.8543 12.5228 18.4598 12.3026C17.9047 11.9815 17.4001 12.0182 16.8634 12.3118C16.5607 12.4769 16.1295 12.7613 15.9277 12.3989C15.6983 11.9769 16.2488 11.876 16.5148 11.6925C17.3405 11.1054 18.2946 11.0503 19.2671 11.1329C19.7075 11.1696 20.0332 11.4861 20.4368 11.7292V11.7246ZM26.1112 12.165C26.8405 11.8255 27.5194 11.4861 28.3222 11.5824C28.8504 11.6396 29.3397 11.8875 29.6983 12.2797C29.8313 12.4219 29.9277 12.6237 29.7625 12.8026C29.5974 12.9723 29.368 13.009 29.1891 12.821C28.7304 12.3301 28.2579 12.4356 27.7809 12.7567C27.368 13.0366 26.8818 13.009 26.4323 13.0503C25.9414 13.0962 25.8176 12.7476 26.1112 12.165Z" fill="black"/>
</g>
</g>
<defs>
<clipPath id="clip0_43_4049">
<path d="M0 20C0 8.95431 8.95431 0 20 0C31.0457 0 40 8.95431 40 20C40 31.0457 31.0457 40 20 40C8.95431 40 0 31.0457 0 20Z" fill="white"/>
</clipPath>
</defs>
</svg>
