<svg width="20" height="20" viewBox="0 0 20 20" fill="none" xmlns="http://www.w3.org/2000/svg">
<g clip-path="url(#clip0_238_2075)">
<path d="M7.49939 9.99988L9.16605 11.6665L12.4994 8.33321M6.52855 3.91404C7.12631 3.86633 7.69379 3.63129 8.15022 3.24238C8.66598 2.8026 9.32159 2.56104 9.99939 2.56104C10.6772 2.56104 11.3328 2.8026 11.8486 3.24238C12.305 3.63129 12.8725 3.86633 13.4702 3.91404C14.1458 3.96779 14.7802 4.26056 15.2595 4.73981C15.7387 5.21906 16.0315 5.85342 16.0852 6.52904C16.1329 7.1268 16.368 7.69428 16.7569 8.15071C17.1967 8.66647 17.4382 9.32208 17.4382 9.99988C17.4382 10.6777 17.1967 11.3333 16.7569 11.849C16.368 12.3055 16.1329 12.873 16.0852 13.4707C16.0315 14.1463 15.7387 14.7807 15.2595 15.2599C14.7802 15.7392 14.1458 16.032 13.4702 16.0857C12.8725 16.1334 12.305 16.3685 11.8486 16.7574C11.3328 17.1972 10.6772 17.4387 9.99939 17.4387C9.32159 17.4387 8.66598 17.1972 8.15022 16.7574C7.69379 16.3685 7.12631 16.1334 6.52855 16.0857C5.85293 16.032 5.21857 15.7392 4.73932 15.2599C4.26007 14.7807 3.96731 14.1463 3.91355 13.4707C3.86584 12.873 3.63081 12.3055 3.24189 11.849C2.80211 11.3333 2.56055 10.6777 2.56055 9.99988C2.56055 9.32208 2.80211 8.66647 3.24189 8.15071C3.63081 7.69428 3.86584 7.1268 3.91355 6.52904C3.96731 5.85342 4.26007 5.21906 4.73932 4.73981C5.21857 4.26056 5.85293 3.96779 6.52855 3.91404Z" stroke="white" stroke-width="1.66667" stroke-linecap="round" stroke-linejoin="round"/>
</g>
<defs>
<clipPath id="clip0_238_2075">
<rect width="20" height="16" fill="white" transform="translate(0 2)"/>
</clipPath>
</defs>
</svg>
