<svg width="22" height="25" viewBox="0 0 22 25" fill="none" xmlns="http://www.w3.org/2000/svg">
<path d="M10.1562 0.78125C10.1562 0.351562 10.5078 0 10.9375 0C11.3672 0 11.7188 0.351562 11.7188 0.78125V1.60156C15.6689 1.99219 18.75 5.32227 18.75 9.375V10.7959C18.75 12.9297 19.5996 14.9756 21.1084 16.4893L21.2451 16.626C21.6504 17.0312 21.8799 17.583 21.8799 18.1543C21.8799 19.3506 20.9131 20.3174 19.7168 20.3174L2.16309 20.3125C0.966797 20.3125 0 19.3457 0 18.1494C0 17.5781 0.229492 17.0264 0.634766 16.6211L0.771484 16.4844C2.27539 14.9756 3.125 12.9297 3.125 10.7959V9.375C3.125 5.32227 6.20605 1.99219 10.1562 1.60156V0.78125ZM10.9375 3.125C7.48535 3.125 4.6875 5.92285 4.6875 9.375V10.7959C4.6875 13.3447 3.67676 15.791 1.87012 17.5928L1.73828 17.7246C1.62598 17.8369 1.5625 17.9883 1.5625 18.1494C1.5625 18.4814 1.83105 18.75 2.16309 18.75H19.7119C20.0439 18.75 20.3125 18.4814 20.3125 18.1494C20.3125 17.9883 20.249 17.8369 20.1367 17.7246L20 17.5879C18.1982 15.7861 17.1826 13.3398 17.1826 10.791V9.37012C17.1826 5.91797 14.3848 3.12012 10.9326 3.12012L10.9375 3.125ZM9.46289 22.3975C9.67773 23.0029 10.2588 23.4375 10.9375 23.4375C11.6162 23.4375 12.1973 23.0029 12.4121 22.3975C12.5537 21.9922 13.0029 21.7773 13.4082 21.9189C13.8135 22.0605 14.0283 22.5098 13.8867 22.915C13.457 24.1309 12.2998 25 10.9375 25C9.5752 25 8.41797 24.1309 7.98828 22.915C7.84668 22.5098 8.05664 22.0605 8.4668 21.9189C8.87695 21.7773 9.32129 21.9873 9.46289 22.3975Z" fill="#525252"/>
</svg>
