<svg width="58" height="58" viewBox="0 0 58 58" fill="none" xmlns="http://www.w3.org/2000/svg">
<path d="M20.8438 5.4375H37.1562C37.6547 5.4375 38.0625 5.84531 38.0625 6.34375V10.875H19.9375V6.34375C19.9375 5.84531 20.3453 5.4375 20.8438 5.4375ZM14.5 6.34375V10.875H7.25C3.25117 10.875 0 14.1262 0 18.125V29H21.75H36.25H58V18.125C58 14.1262 54.7488 10.875 50.75 10.875H43.5V6.34375C43.5 2.84336 40.6566 0 37.1562 0H20.8438C17.3434 0 14.5 2.84336 14.5 6.34375ZM58 32.625H36.25V36.25C36.25 38.2551 34.6301 39.875 32.625 39.875H25.375C23.3699 39.875 21.75 38.2551 21.75 36.25V32.625H0V47.125C0 51.1238 3.25117 54.375 7.25 54.375H50.75C54.7488 54.375 58 51.1238 58 47.125V32.625Z" fill="#CB2224"/>
</svg>
