<svg width="60" height="60" viewBox="0 0 60 60" fill="none" xmlns="http://www.w3.org/2000/svg">
<g clip-path="url(#clip0_302_463)">
<path d="M0 30C0 37.9565 3.16071 45.5871 8.7868 51.2132C14.4129 56.8393 22.0435 60 30 60C37.9565 60 45.5871 56.8393 51.2132 51.2132C56.8393 45.5871 60 37.9565 60 30C60 22.0435 56.8393 14.4129 51.2132 8.7868C45.5871 3.16071 37.9565 0 30 0C22.0435 0 14.4129 3.16071 8.7868 8.7868C3.16071 14.4129 0 22.0435 0 30ZM13.2422 45.0234C15.832 40.5352 20.6836 37.5 26.25 37.5H33.75C39.3047 37.5 44.168 40.5234 46.7578 45.0234C42.6328 49.6055 36.6562 52.5 30 52.5C23.3438 52.5 17.3672 49.6055 13.2422 45.0234ZM38.4375 23.4375C38.4375 25.6753 37.5485 27.8214 35.9662 29.4037C34.3839 30.9861 32.2378 31.875 30 31.875C27.7622 31.875 25.6161 30.9861 24.0338 29.4037C22.4514 27.8214 21.5625 25.6753 21.5625 23.4375C21.5625 21.1997 22.4514 19.0536 24.0338 17.4713C25.6161 15.8889 27.7622 15 30 15C32.2378 15 34.3839 15.8889 35.9662 17.4713C37.5485 19.0536 38.4375 21.1997 38.4375 23.4375Z" fill="#CB2224"/>
<path d="M30 31.875C32.2378 31.875 34.3839 30.9861 35.9662 29.4037C37.5486 27.8214 38.4375 25.6753 38.4375 23.4375C38.4375 21.1997 37.5486 19.0536 35.9662 17.4713C34.3839 15.8889 32.2378 15 30 15C27.7622 15 25.6161 15.8889 24.0338 17.4713C22.4514 19.0536 21.5625 21.1997 21.5625 23.4375C21.5625 25.6753 22.4514 27.8214 24.0338 29.4037C25.6161 30.9861 27.7622 31.875 30 31.875ZM30 52.5C36.6562 52.5 42.6328 49.6055 46.7578 45.0234C44.168 40.5234 39.3047 37.5 33.75 37.5H26.25C20.6953 37.5 15.832 40.5234 13.2422 45.0234C17.3672 49.6172 23.3438 52.5 30 52.5Z" fill="white"/>
</g>
<defs>
<clipPath id="clip0_302_463">
<rect width="60" height="60" fill="white"/>
</clipPath>
</defs>
</svg>
