<svg width="20" height="20" viewBox="0 0 20 20" fill="none" xmlns="http://www.w3.org/2000/svg">
<path d="M17.5 11.0457C15.1171 12.0092 12.5704 12.503 10 12.4998C7.3475 12.4998 4.81667 11.9832 2.5 11.0457M13.3333 4.99984V3.33317C13.3333 2.89114 13.1577 2.46722 12.8452 2.15466C12.5326 1.8421 12.1087 1.6665 11.6667 1.6665H8.33333C7.89131 1.6665 7.46738 1.8421 7.15482 2.15466C6.84226 2.46722 6.66667 2.89114 6.66667 3.33317V4.99984M10 9.99984H10.0083M4.16667 16.6665H15.8333C16.2754 16.6665 16.6993 16.4909 17.0118 16.1783C17.3244 15.8658 17.5 15.4419 17.5 14.9998V6.6665C17.5 6.22448 17.3244 5.80055 17.0118 5.48799C16.6993 5.17543 16.2754 4.99984 15.8333 4.99984H4.16667C3.72464 4.99984 3.30072 5.17543 2.98816 5.48799C2.67559 5.80055 2.5 6.22448 2.5 6.6665V14.9998C2.5 15.4419 2.67559 15.8658 2.98816 16.1783C3.30072 16.4909 3.72464 16.6665 4.16667 16.6665Z" stroke="white" stroke-width="1.66667" stroke-linecap="round" stroke-linejoin="round"/>
</svg>
