<svg width="20" height="20" viewBox="0 0 20 20" fill="none" xmlns="http://www.w3.org/2000/svg">
<path d="M6.85667 7.5C7.31417 6.52917 8.54833 5.83333 10 5.83333C11.8417 5.83333 13.3333 6.9525 13.3333 8.33333C13.3333 9.5 12.2683 10.4792 10.8283 10.7558C10.3767 10.8425 10 11.2058 10 11.6667M10 14.1667H10.0083M17.5 10C17.5 10.9849 17.306 11.9602 16.9291 12.8701C16.5522 13.7801 15.9997 14.6069 15.3033 15.3033C14.6069 15.9997 13.7801 16.5522 12.8701 16.9291C11.9602 17.306 10.9849 17.5 10 17.5C9.01509 17.5 8.03982 17.306 7.12987 16.9291C6.21993 16.5522 5.39314 15.9997 4.6967 15.3033C4.00026 14.6069 3.44781 13.7801 3.0709 12.8701C2.69399 11.9602 2.5 10.9849 2.5 10C2.5 8.01088 3.29018 6.10322 4.6967 4.6967C6.10322 3.29018 8.01088 2.5 10 2.5C11.9891 2.5 13.8968 3.29018 15.3033 4.6967C16.7098 6.10322 17.5 8.01088 17.5 10Z" stroke="white" stroke-width="1.66667" stroke-linecap="round" stroke-linejoin="round"/>
</svg>
