<svg width="17" height="16" viewBox="0 0 17 16" fill="none" xmlns="http://www.w3.org/2000/svg">
<path fill-rule="evenodd" clip-rule="evenodd" d="M16.5938 8C16.5938 10.1217 15.7509 12.1566 14.2506 13.6569C12.7503 15.1571 10.7155 16 8.59375 16C6.47202 16 4.43719 15.1571 2.9369 13.6569C1.4366 12.1566 0.59375 10.1217 0.59375 8C0.59375 5.87827 1.4366 3.84344 2.9369 2.34315C4.43719 0.842855 6.47202 0 8.59375 0C10.7155 0 12.7503 0.842855 14.2506 2.34315C15.7509 3.84344 16.5938 5.87827 16.5938 8ZM9.59375 4C9.59375 4.26522 9.48839 4.51957 9.30086 4.70711C9.11332 4.89464 8.85897 5 8.59375 5C8.32853 5 8.07418 4.89464 7.88664 4.70711C7.69911 4.51957 7.59375 4.26522 7.59375 4C7.59375 3.73478 7.69911 3.48043 7.88664 3.29289C8.07418 3.10536 8.32853 3 8.59375 3C8.85897 3 9.11332 3.10536 9.30086 3.29289C9.48839 3.48043 9.59375 3.73478 9.59375 4ZM7.59375 7C7.32853 7 7.07418 7.10536 6.88664 7.29289C6.69911 7.48043 6.59375 7.73478 6.59375 8C6.59375 8.26522 6.69911 8.51957 6.88664 8.70711C7.07418 8.89464 7.32853 9 7.59375 9V12C7.59375 12.2652 7.69911 12.5196 7.88664 12.7071C8.07418 12.8946 8.32853 13 8.59375 13H9.59375C9.85897 13 10.1133 12.8946 10.3009 12.7071C10.4884 12.5196 10.5938 12.2652 10.5938 12C10.5938 11.7348 10.4884 11.4804 10.3009 11.2929C10.1133 11.1054 9.85897 11 9.59375 11V8C9.59375 7.73478 9.48839 7.48043 9.30086 7.29289C9.11332 7.10536 8.85897 7 8.59375 7H7.59375Z" fill="#A3A3A3"/>
</svg>
