<svg width="23" height="19" viewBox="0 0 23 19" fill="none" xmlns="http://www.w3.org/2000/svg">
<path d="M0.5 1.58333C0.5 0.707552 1.20223 0 2.07143 0H20.9286C21.7978 0 22.5 0.707552 22.5 1.58333C22.5 2.45911 21.7978 3.16667 20.9286 3.16667H2.07143C1.20223 3.16667 0.5 2.45911 0.5 1.58333ZM0.5 9.5C0.5 8.62422 1.20223 7.91667 2.07143 7.91667H20.9286C21.7978 7.91667 22.5 8.62422 22.5 9.5C22.5 10.3758 21.7978 11.0833 20.9286 11.0833H2.07143C1.20223 11.0833 0.5 10.3758 0.5 9.5ZM22.5 17.4167C22.5 18.2924 21.7978 19 20.9286 19H2.07143C1.20223 19 0.5 18.2924 0.5 17.4167C0.5 16.5409 1.20223 15.8333 2.07143 15.8333H20.9286C21.7978 15.8333 22.5 16.5409 22.5 17.4167Z" fill="white"/>
</svg>
