<svg width="25" height="25" viewBox="0 0 25 25" fill="none" xmlns="http://www.w3.org/2000/svg">
<path d="M7.81284 18.7508C8.67713 18.7508 9.3754 19.4491 9.3754 20.3134V22.6572L14.1657 19.0633C14.4342 18.8582 14.7663 18.7508 15.1032 18.7508H21.8759C22.7402 18.7508 23.4385 18.0525 23.4385 17.1882V3.12513C23.4385 2.26084 22.7402 1.56257 21.8759 1.56257H3.12513C2.26084 1.56257 1.56257 2.26084 1.56257 3.12513V17.1882C1.56257 18.0525 2.26084 18.7508 3.12513 18.7508H7.81284ZM0 3.12513C0 1.40143 1.40143 0 3.12513 0H21.8759C23.5996 0 25.0011 1.40143 25.0011 3.12513V17.1882C25.0011 18.9119 23.5996 20.3134 21.8759 20.3134H15.1032L9.06289 24.8448C8.82851 25.0206 8.51111 25.0499 8.24254 24.9181C7.97398 24.7862 7.81284 24.5177 7.81284 24.2198V21.8759V20.3134H6.25027H3.12513C1.40143 20.3134 0 18.9119 0 17.1882L0 3.12513Z" fill="#525252"/>
</svg>
