<svg width="15" height="17" viewBox="0 0 15 17" fill="none" xmlns="http://www.w3.org/2000/svg">
<path fill-rule="evenodd" clip-rule="evenodd" d="M2.80051 2.05036C4.11333 0.737536 5.89389 0 7.7505 0C9.60711 0 11.3877 0.737536 12.7005 2.05036C14.0133 3.36318 14.7509 5.14375 14.7509 7.00036C14.7509 8.85697 14.0133 10.6375 12.7005 11.9504L7.7505 16.9004L2.80051 11.9504C2.15042 11.3003 1.63474 10.5286 1.28291 9.67931C0.931084 8.82998 0.75 7.91967 0.75 7.00036C0.75 6.08104 0.931084 5.17073 1.28291 4.32141C1.63474 3.47208 2.15042 2.70038 2.80051 2.05036ZM7.7505 9.00036C8.28094 9.00036 8.78965 8.78964 9.16472 8.41457C9.53979 8.0395 9.75051 7.53079 9.75051 7.00036C9.75051 6.46992 9.53979 5.96122 9.16472 5.58614C8.78965 5.21107 8.28094 5.00036 7.7505 5.00036C7.22007 5.00036 6.71136 5.21107 6.33629 5.58614C5.96122 5.96122 5.7505 6.46992 5.7505 7.00036C5.7505 7.53079 5.96122 8.0395 6.33629 8.41457C6.71136 8.78964 7.22007 9.00036 7.7505 9.00036Z" fill="#A3A3A3"/>
</svg>
