<svg width="20" height="20" viewBox="0 0 20 20" fill="none" xmlns="http://www.w3.org/2000/svg">
<path d="M14.166 16.6668H18.3327V15.0002C18.3326 14.4806 18.1707 13.974 17.8695 13.5507C17.5682 13.1274 17.1425 12.8085 16.6516 12.6383C16.1608 12.4681 15.629 12.4551 15.1304 12.601C14.6318 12.747 14.191 13.0446 13.8693 13.4527M14.166 16.6668H5.83268M14.166 16.6668V15.0002C14.166 14.4535 14.061 13.931 13.8693 13.4527M13.8693 13.4527C13.5599 12.6793 13.0258 12.0164 12.336 11.5494C11.6462 11.0825 10.8323 10.8329 9.99935 10.8329C9.16636 10.8329 8.35248 11.0825 7.66268 11.5494C6.97289 12.0164 6.43881 12.6793 6.12935 13.4527M5.83268 16.6668H1.66602V15.0002C1.66605 14.4806 1.82796 13.974 2.12923 13.5507C2.43051 13.1274 2.85617 12.8085 3.34706 12.6383C3.83794 12.4681 4.36966 12.4551 4.8683 12.601C5.36693 12.747 5.80771 13.0446 6.12935 13.4527M5.83268 16.6668V15.0002C5.83268 14.4535 5.93768 13.931 6.12935 13.4527M12.4993 5.8335C12.4993 6.49654 12.236 7.13242 11.7671 7.60126C11.2983 8.0701 10.6624 8.3335 9.99935 8.3335C9.33631 8.3335 8.70042 8.0701 8.23158 7.60126C7.76274 7.13242 7.49935 6.49654 7.49935 5.8335C7.49935 5.17045 7.76274 4.53457 8.23158 4.06573C8.70042 3.59689 9.33631 3.3335 9.99935 3.3335C10.6624 3.3335 11.2983 3.59689 11.7671 4.06573C12.236 4.53457 12.4993 5.17045 12.4993 5.8335ZM17.4993 8.3335C17.4993 8.77552 17.3238 9.19945 17.0112 9.51201C16.6986 9.82457 16.2747 10.0002 15.8327 10.0002C15.3907 10.0002 14.9667 9.82457 14.6542 9.51201C14.3416 9.19945 14.166 8.77552 14.166 8.3335C14.166 7.89147 14.3416 7.46755 14.6542 7.15499C14.9667 6.84242 15.3907 6.66683 15.8327 6.66683C16.2747 6.66683 16.6986 6.84242 17.0112 7.15499C17.3238 7.46755 17.4993 7.89147 17.4993 8.3335ZM5.83268 8.3335C5.83268 8.77552 5.65709 9.19945 5.34453 9.51201C5.03197 9.82457 4.60804 10.0002 4.16602 10.0002C3.72399 10.0002 3.30006 9.82457 2.9875 9.51201C2.67494 9.19945 2.49935 8.77552 2.49935 8.3335C2.49935 7.89147 2.67494 7.46755 2.9875 7.15499C3.30006 6.84242 3.72399 6.66683 4.16602 6.66683C4.60804 6.66683 5.03197 6.84242 5.34453 7.15499C5.65709 7.46755 5.83268 7.89147 5.83268 8.3335Z" stroke="white" stroke-width="1.66667" stroke-linecap="round" stroke-linejoin="round"/>
</svg>
