<svg width="20" height="20" viewBox="0 0 20 20" fill="none" xmlns="http://www.w3.org/2000/svg">
<path d="M8.0525 14.1667H11.9467M10 2.5V3.33333M15.3033 4.69667L14.7142 5.28583M17.5 10H16.6667M3.33333 10H2.5M5.28583 5.28583L4.69667 4.69667M7.05333 12.9467C6.47072 12.3639 6.074 11.6215 5.91331 10.8132C5.75263 10.005 5.83521 9.1673 6.15061 8.40601C6.466 7.64471 7.00006 6.99403 7.68524 6.53624C8.37042 6.07845 9.17596 5.83411 10 5.83411C10.824 5.83411 11.6296 6.07845 12.3148 6.53624C12.9999 6.99403 13.534 7.64471 13.8494 8.40601C14.1648 9.1673 14.2474 10.005 14.0867 10.8132C13.926 11.6215 13.5293 12.3639 12.9467 12.9467L12.49 13.4025C12.2289 13.6636 12.0218 13.9736 11.8806 14.3148C11.7393 14.6559 11.6666 15.0216 11.6667 15.3908V15.8333C11.6667 16.2754 11.4911 16.6993 11.1785 17.0118C10.866 17.3244 10.442 17.5 10 17.5C9.55797 17.5 9.13405 17.3244 8.82149 17.0118C8.50893 16.6993 8.33333 16.2754 8.33333 15.8333V15.3908C8.33333 14.645 8.03667 13.9292 7.51 13.4025L7.05333 12.9467Z" stroke="white" stroke-width="1.66667" stroke-linecap="round" stroke-linejoin="round"/>
</svg>
