<svg width="20" height="20" viewBox="0 0 20 20" fill="none" xmlns="http://www.w3.org/2000/svg">
<path d="M13.3236 5.83659C13.3236 6.71995 12.9727 7.56714 12.348 8.19177C11.7234 8.8164 10.8762 9.16732 9.99284 9.16732C9.10947 9.16732 8.26229 8.8164 7.63766 8.19177C7.01302 7.56714 6.66211 6.71995 6.66211 5.83659C6.66211 4.95322 7.01302 4.10604 7.63766 3.48141C8.26229 2.85677 9.10947 2.50586 9.99284 2.50586C10.8762 2.50586 11.7234 2.85677 12.348 3.48141C12.9727 4.10604 13.3236 4.95322 13.3236 5.83659ZM9.99284 11.6654C8.44695 11.6654 6.96438 12.2795 5.87127 13.3726C4.77816 14.4657 4.16406 15.9483 4.16406 17.4941H15.8216C15.8216 15.9483 15.2075 14.4657 14.1144 13.3726C13.0213 12.2795 11.5387 11.6654 9.99284 11.6654Z" stroke="white" stroke-width="1.66536" stroke-linecap="round" stroke-linejoin="round"/>
</svg>
